<mxfile host="app.diagrams.net" modified="2022-07-04T18:14:48.307Z" agent="5.0 (Windows NT 10.0; Win64; x64) AppleWebKit/537.36 (KHTML, like Gecko) Chrome/103.0.0.0 Safari/537.36" etag="VwVMNjcc-WXvX1wUYdUZ" version="20.0.4" type="github">
  <diagram id="7VFrzVTaFIZb5sldJm6k" name="Page-1">
    <mxGraphModel dx="1422" dy="762" grid="1" gridSize="10" guides="1" tooltips="1" connect="1" arrows="1" fold="1" page="1" pageScale="1" pageWidth="850" pageHeight="1100" math="0" shadow="0">
      <root>
        <mxCell id="0" />
        <mxCell id="1" parent="0" />
        <mxCell id="qoFTWApX2Qqf_C5WP7gE-1" value="" style="shape=image;verticalLabelPosition=bottom;labelBackgroundColor=default;verticalAlign=top;aspect=fixed;imageAspect=0;image=data:image/png,iVBORw0KGgoAAAANSUhEUgAAAi8AAADZCAYAAADogNBpAAAgAElEQVR4nOzdd1QU19vA8e/MLk1BARWxgFhRLEEFNfZo7DH2Eo2xpNhjTPKzRBNNMxoTTWKLGht2Y++9d7BhQ1ARsSBFet3dmfcPxNBFBRZ87+ccTiLMzjwzs3PnmdtGUlVVRRAEQRAEoZCQjR2AIAiCIAjCyxDJiyAIgiAIhYpIXgRBEARBKFRE8iIIgiAIQqEikhdBEARBEAoVkbwIgiAIglCoiORFEARBEIRCRSQvgiAIgiAUKiJ5EQRBEAShUNEaOwBBEARBeHV6oh8HEBgah2pRjFL25bGz1Bg7KCGPieRFEAShEInYPYHev5wkTgWNU38WLB+OS56V5Hq85wxg9PpADJn8VZJkJI0WUwtLitva4VClDk3f70vX+nZ5fHPR8/i0B3PmebDlwDl8QxNQnr3oRjIpRrkaDXm324cMG96PhqVzPxK99xwGjF5PYCYHRZK1mJhbYlO6PFVqutG0XSfa1i2DWa5HAei9mTNgNOszCyQbpo0nsP3X97DMi5jyiyoIgiAUDobH6pLOxVUJVEBFW0MddyYxDzeYqJ4YW03VpmwvBz+SSTn13Z+Oq2GGPAop+oq69OO6qo1GSrVdSZW1WlUjpf2dtqS7OnyNjxqfyyEknhirVtPm8JhIZmqZBh+pvx95qOpyOQ418YQ6tpo2x+cm5ces0xI1PLdjyWei5kUQBKGQMASsY9WhKFS5ONZW0URG+rJ++TGmNGpDkbzeuLYq3ScNp5m1lObXqqIjITqU+1ePsWPXeR4mPOTQlL58Wv40GwZWIFcbcGLOM+P995h0NAQDWmxdezJqzCf0bNsQl7KWSAkh3L14jG0r5/Pn8qMEhnry98D2RHIMjw8cczcWALRU7T6J4c2s+e+oqOgTogh74MfFEwc5dvUJj8978HXbQxycvpn1XzbAKtfjAG3V7kwa3ox0pyfzZSs2xCIPYshXxs6eBEEQhJzQqVd/cFNNJVRt1VHq4u/cVBMJVS7dX92YZ4/RqWpeTJqpv/tnV51iUMOOjlPrF02u/dDWGKeezc1KIUOouvOzqqqJhIpspbqO2KT6Z7l+gxp6bIra3FZWAVW266F6PMy9qqD/al5M1Ga/+6tZrzlWvbtzitquvIkqgSppHdQP1j7IZvmXDuR5zYtJs9/VbE/PG0aMNhIEQSgMkrxYufYySaqWat0/5MMPeuBmKqGE7MJjSxCKseNDxrbFOEa1tkIC9HcucOFp7kWVcGYG45bdRqdqsH//Tzb/1R0n06xjKdH8Ozymd8BGBiVkO3/+cx19rkWTU0Wo2GkqW3f/QksbGVUfyIaJP7A/Ot8DeeOI5EUQBKEQiDvuwQZfPZJJLXr2rY951V70bGiGpERycOV6Al6uz2YesaSCQ4lnNxY9SUm5td5wts1Zho9ORSralP/N+IiKL2wDkqnQfzjdy2hA1XP1wD7uG+kYmdcew+zP62IqgeH+BhZtCTFOIG8QkbwIgiAUeBHsXbGF+wYJk7o96VNbC5qK9OjZGAtJJf7Ualb75H+9QkZJBIdEoAJyySpUs8ulW0zkfjbvf4qCRLE2gxlQJYe9V4q049dTV7l+/RqXlw/A3mgjqLXUGtCXBiYSKFEc33fcWIG8MUTyIgiCUMApT7axcmcwimRGg159cNYAyDh0702zohJq0iXWeHiRaxUdryjp5lL+2R+JIplQpdcAWprnznoTL57AM0oByYR677SiRI7vXFpsK9TAxcWFGpVL532n5mxoHN6mgZMGUIi64W3ESN4MYrSRIAhCgaYQ+O9KDkQqSBaN6d2r0vNRM3KZLvR+Zzz7d0Tiu34Fx6Y0ok2e3aHjCPa7indUuuEsSiLRIfe5fnonyxeu5mwk2L49kcVTW+RashDp68cjBZDtcXaxK5xP3dpKVHKQwReU4Ie5v/64YPyuepP+9KQnaaxxrOFI8UJ5EP8jkhdBEISCzODD6lUniVMlLFv0oYdDqruObE/nXq0ovmsLEYFb8Nj7C226W+dNHLoLzGjryozslpFMcGg/gw1rv6ZR8dzasIHQkKfJk9DJNpQqWUhnz5WLU7yYBglQ4+NzffW6CzNo65rt2UkOw6Yf/z5aTfdcqhUzlkKeewmCILzZ9BdXsfZiIqpcnNZ9umKfrtQu9V5v2iYPqWGnx1ae5NWwI0lGo9WizfCjQZaePe6rOgL3jufd+u/z89HgXBoBpWLQp6xJIgfTmBRYz2PX5n69gSRrMjk3GX80Wk2hPoYpRPIiCIJQYCVwwmM9N3UgFa1Hg8pBXPP2xjv1T6Aj7m5WSChEHvRgfV4NqdE24Ve/RHQ6XbofPUkxIdy/fpx1v3xEXWuIu7OD77r3Y87N3OhELGNVrGjy/yoRhIUXiGFVL0+JJCLKkNyZuVju145pm/yKX2L6c5PxJynYg26FvNYFRLORIAhCwRW9jxWbA5LfKxR9mG+avcU32S0fd4pVq3wYOblmHswmmzVNkRI4uDSjj0sz2jW0oXG7v7gZfpSZs/bzyeKOFH2ttcuUcihHUQkilCfcuR0J79jl8LMGHp5Yy87rMagaB5oP6ISLsW7cej/8ApJrkORyTkYK4s0hal4EQRAKJIWQbR5sDzJk02STqjlAlkBN4tLalXgZcdiRdfPP6O+qBQwEnz3JjVyofDF/y5UaWgnURC6fOktsjj8Zw9HZIxg+fDgjv9mA3+uH8sr0Nw9xPEAPaChb29WIkbwZRPIiCIJQECkP2LhyPxEKaJ2/5ERsds0B8Xh+UxsTQH9rPSuOxxkvbskG62LJvSqUyHAic6GVR1OpLa1raAGF4D1r2RWWww/GneaYZxwqEmZ13KmX5Yy8eS2OMyvWc1UHyKVo0cbdWIG8MUTyIgiCUAAZ/Nax6ngsqmRCzZ79cM/2xquldp8e1DGRwHCfLSv2EpFfgaan88X33rPmkdLlKJsbnRO0dejXzx0LCZSQLUz77XQOal8UAtfMZ+MjA0gWNOrcibJGuuPFec1iwj++6JHQVunD4DaWxgnkDSKSF0EQhAJHz+VVq/FMVJFM6tLrgzov7KCordGbHvVNkFAI3unB1jwbdpQdPXc8fmedvx4kE5zbtKNarnS+0VBj6GQGVNQiqYl4zxrIsNV3sp2UL+H6fIZN3k24ApqyPRn9UcV87QeUTE/Q8Zn07fEDZ6JVJE1ZekwdRzNjzpb3hhAddgVBEAqaxFOsXHcDnSph3qg3fZ1zcNvVVKV3z4b8cO4ECZEHWbnhPh+NdsrFJ9R4Qu/e5EZcJgNtVT2xwbc4tXkBvy86SrAioSnbjYmj6ufeTca6Hb8sHM3ZLn/gHXeb1YObcu/sD0wbN4BmDql64SY+4tTKaYybtJAzwQqSSQX6/D6NLra5FUha8aF3uXkjLtXwYxV9XCh3L5/m0LaVrNzjQ6RBBbkY9b9czpw+ZfOm1iA+lLs3b5DZ6UlPKmJPZSdbjNaKlhuM/VprQRAEIa3oHUPUchpUpKLqu3MDVEMOP2e495faqoikgqSaNvhJva5/3UgS1RNjq6laUMnxj6Sa2L+j/nA8LMdx55xeDdg2Vm1UQqNKz7YnaS3VMs711SYtWqhN3Gqq5Ytp//ubWUW127xLakwuR5F4YqxaTZvz46EtUU8dNP+8+jS3D0jiCXVsNe1LnJvkH5PGM1S/1/5uGJdoNhIEQShQwtjhsY3HBpCKteKDHuVz/KQuO3SnV7OiSKgkXVyDx4V8GnYkSWhMi2FfrTHdv1zA4Yv7+baZbR7UMGhwfH8Wxy7s5bdP3qFSMQ3oY3h86wKnjh3jlNd1HkTpwaQENTt9weLjnmwc4fqaQ7VfjiRpMLEoTmmnWjR+bxDj/9rKZT9Plg13x0bccXONpKqqauwgBEEQBOGlxT3m6vlzXPF7QGh0EpJ5cewcq1PvbXecSxTqRhHhBUTyIgiCIAhCoSIqsQRBEARBKFRE8iIIglAIGQzGfcePsbefXkGKx9ixGHv7+UEkL4IgCIXMhQsX2L17t1FjmD59Onp9brx4MXfMmjWL2Nicvzggr9y8eZONGzcaNYbffvuNhIQEo8aQ10TyIgiCUMgsWLCADRs2GG37sbGxzJw5k6NHjxothtR0Oh2zZ882ekIH8Pfff7N+/XqjbT8xMZFZs2axb98+o8WQH0SHXUEQhEIkIiICGxsbAOLj4zE3z//XJP/xxx+MHTuWd955h8OHD+f79tNbu3Yt/fr1w8XFhevXrxstjtjYWCwtk6f+j4yMpFixYvkew7JlyxgyZAj16tXjwoUL+b79/CJqXgRBEAqRFStWPP//PXv25Pv2VVV9HsORI0fQ6XT5HkN6//zzDwA3btwgOjraaHGsXbv2+f9v377dKDEsW7YMgIsXLxIXZ8QXdOYxkbwIgiAUEqqqMn/+/Of/NkbT0fnz57l8+fLzfx86dCjfY0jNx8cnTe3Pzp07jRKHqqrMmzfv+b+NcW6uXr3KiRMnnv/bGMltfhHJiyAIQiFx5MgRfH19n/9727Zt+f50vWDBgjT/Nmb/DkjuY5KaseJJn9Tt2bOHiIj8fbd3QTkW+UEkL4IgCIVE+sQhPj6eXbt25dv2w8LC0jSNAGzatInExMR8iyG12NhYli5dmuZ3u3fvJjIyMt9jSX9u9Ho9W7duzbftR0dHs3z58jS/27FjBzExMfkWQ34SyYsgCEIh8OjRIzZv3pzh9/n5dL18+XKSktK+Lyk6Opr9+/fnWwyprVu3LkMfF51Ox7Zt2/I1jsySOsjfc7N69eoMtXAJCQlGa0bLayJ5EQRBKASWLFmCoigZfr9z5858ebpWFIUFCxYgSVKGvxlr2Hb62o4U+R3PihUrMiR1AAcOHCAsLCzPt5++L1RqxhxSn5dE8iIIglDA6fX6LBOHxMREduzYkecxHDx4kDt37pDZ7BpbtmzJ90nRPD09sxwKvG/fPsLDw/MlDkVRmD9/fqbnxmAwsGXLljyP4fTp01y9ejXTv+3atYuoqKg8jyG/ieRFEAShgNu5cyePHz/ONHGA/GmeyKqWA5L7nuT3yJbs4tHr9fmSNEDyaKuskjow/rlJSkoy2rDtvCSSF0EQhAIuqyaBFHndSTUwMPCF/Ujys3/H06dPWbNmTbbL5Fc8Lzo3hw4dIjg4OM+2HxIS8sKmoTdx1JFIXgRBEAowPz8/Dhw4kO0yOp0uT5+uFy9enGXNQort27fn27DtFStWvHCE08GDBwkNDc3TOB48ePDCpE5V1Uw7WueWpUuXvnCiwL179+b7sO28JpIXQRCEAiz93B1Zyauna51Ox8KFCzPt05Fafg3bTuljkpPl8jJpAFi0aNELkzrIu3NjMBj4+++/X3hu8nvYdn4QyYsgCEIBFR8fz5IlS3K0bF51Ut26dSvBwcFGvUmndvjwYW7fvp2jZfMynpwmdQBHjx7l8ePHuR7Dvn37uHfvXoE5N/lJJC+CIAgF1Pr165/3ZcnJ03VedFJN3Rn0RTFs2rQpz98tlLrW5UXxHD58mCdPnuRJHKmTOkmSXhjLxo0bcz2Glzk3e/fuzZdh2/lFM3Xq1KnGDkIQBEHIaNu2bZiZmVG6dGnKli1LyZIl0Wg0REdHY2lpiampKaqqPp//JSEhgQEDBuTa9iMiIti1axdlypTBwcEBOzs7bG1tiY2NRafTYWtriyRJ6PX655+pVasWtWvXzrUYUouPj2fz5s3Y29uniSc+Pp6kpCSsra2RZRlFUZ7XRjg5OdGgQYNcj2XHjh2YmJhQunRpypQpQ4kSJTAxMSEqKoqiRYs+f9u3wWAAICoqiiFDhuTa9mNjY9myZcvzc1OqVClsbW2Ji4sjKSkJGxubDMeiSpUq1K9fP9diMCZJzUl9kyAIglAgrFmzhv79+7N8+XIGDhwIJPfvSExMJDExEWtr6zyPoX379uzbtw+DwYAsJ1fg6/V6EhISkGWZIkWK5HkMqfXt25f169fz9OlTbGxs0sQDYGlpmS9xbNu2ja5duzJv3jxGjBgB/HduEhISnseWl3r06MHmzZufJ7jw37GQJImiRYvmeQz5QWvsAARBEIScS7khW1hYPP+dLMtYWFik+V1ex2BmZvY8cQHQarX5liRkFg+kPSbGiKegnBvgec0PGPfc5BXR50UQBKEQyezmZIwYjLn99FKOiZmZWYGIw9jnRqvVotW+2XUTInkRBEEoRArKDbKgJS9mZmY5GvmT13GAODf5QSQvgiAIhYi4QWZUUOIR5yb/iORFEAShECkIN8j4+PgCdYMsKDdscW7yj0heBEEQCpGCcINMSEjItw6oOSGSl7QxFKRzk1dE8iIIglCIFJQbZEFIFlIUlHjEuck/InkRBEEoROLj4wFxg0ytoDSViHOTf0TyIgiCUIgY++leURSSkpIK1A2yoNywjX1uUmIoCMcir4nkRRAEoRAx9g0yMTHRqNvPTEG5YRv73KiqWmCORV4TyYsgCEIhktksrsbYfkG5QabUBBWETqrGPjc6nQ5VVQvMuclLBXYKPkVRiI+PR6fTGTsUQXglZmZmmJubG33iLCF/KYpCQkICSUlJebL+6OhoJEkiJibGKN+tlLc0y7JMREREvm8/vZR+JgUhnpQ3aickJBgllqioKAA0Gs1rbd/U1BRzc/M0r38oaIz6YkZVVfH398fT0xMvLy+8vLy46u1NdHQ0SSJpEd4Q5mZm2NjYUK9+fdzd3XFzc8Pd3R07Oztjhya8IlVVefjwIV5eXs/Lr0uXLxMZGUnSs2YVQSjsTM3MKFasGHVdXZ+XXW5ubpQvX97oD2X5nrzcvHmT1atXJ1/wnp48DQ9//jetRoNLhQrYWllhbmqKhZkZJlqt0Q+SILwsVVVJ1OmIT0wkISmJx2Fh+D18mGYZh/LlcXN3p3HjxgwYMIDSpUsbKVohJwICAli1ahVnz57F08uLJ0FBz/8myTIOzs7Y2Nlham6OqYUFJqameVJ2PQ0KIjE+njIVK+b6unNCVVXu+/hQokwZLPPhDdY5EejrS/GSJSlma2vUOCKCg4mLjqZs5cpGi+H+rVvYlCqF1SseC1VV0SUlkRQfT1JCAhEhIdz38UFVlOfL2JUujbubGw0bNmTAgAE4OTnlVvg5li/Ji8FgYOfOncz56y8OHT4MgCxJuFSogJuzM27OzrhXr06dypUxNzXN63AEwSgiY2K44OuL161bePr44OXry71nN0BTExN69+nDqFGjaNiwoZEjFVKoqsqRI0eYM2cO27Zvf16Al6taleru7ji7uVHd3Z0qrq5YvGFv7RWEFPGxsdy+dIlbXl7c8vLCx9OTB76+QHLi/n7nzowaNYrWrVvnW2VDniYvYWFh/PPPPyyYP5+A+/cB6NCgASO6dqWlqyuWBaCDlSAYU2hkJNtPnWLO5s1cvnMHAHc3N0aNHk3v3r3/X3S8K4iio6NZuXIlc+bOxefmTQBqNW1Kt5EjadC+fYGpcRAEY4mJjMRz3z62zpuH9/HjADhXr87oUaP46KOPsLKyytPt50nyEh0dzaRJk1i8aBEJiYkUL1qUIR06MKJrV6qUK5fbmxOEQk9VVc5cv86czZvZePw4eoOBkiVKMGnyZD7//PMC3XHuTZKUlMS0adOYNXs20VFRmFpY8G7//nQbOZIqrq7GDk8QCqQ73t5smTuXA6tWkRQfj6WVFV+MGcPkyZMxMzPLk23mevJy9OhRBg8axL2AAGo4OjKmRw/6t2kjalkEIYceh4WxaMcO5m/bRnBEBM2aNmXZ8uVUNmI7+v8HV65c4aOBA/G+cgU7R0e6jx5NhyFDjN6PQhAKi+jwcPYsW8aWOXMIunePWrVr47FiBXXr1s31beVa8hIXF8fEiRP566+/MNFomDJwIOP79UOr0eTG6gXh/53w6GjGzJnDygMHKGJhwczffmPYsGGiFiaX6XQ6pk+fzvc//IBBr6fHmDF8Mm0a5kWKGDs0QSiUEuPjWTJ5Mv/Ono1Go+HbyZP55ptvMDExybVt5Erycvr0aQYNHIjf7du8VbkyKyZM4K0qVXIjPkH4f2/byZN89vvvBEdE0LpVK5YsXUqFChWMHdYb4fr163w0cCAXL1zAvmJFxi9bhmuLFsYOSxDeCN4nTjB90CAe371L3Xr18Fixglq1auXKul87eZk5cybjx41DlmW+6d+fyQMGYJqL2ZUgCMkde0f+8Qcbjh7FytKSDf/+S/v27Y0dVqG2atUqhnz8MbqkJDoPG8bwmTPFiCFByGXxMTEsHD+ebfPnY2JqyuJFixg4cOBrr/e1kpdffvmFb775hkplyrB+yhTcnJ1fOyBBELK24cgRPp45E53BwNZt20QC84pWrlzJRwMHUrxkSSavXo1bmzbGDkkQ3mgXDh3i5/79CQ8OZumSJQwePPi11vfKyUtK4lKlXDmOzJ5N+VKlXisQQRBy5uTVq7QfNw69oogE5hWkTlxmHzlCxZo1jR2SIPy/cO/GDb5s1Yrw4GCWLV3KoEGDXnldr9TzTyQugmA8TWvXZu+vv6KVZbp26cLevXuNHVKhIRIXQTAeJxcXZh0+jI2dHYOHDGH58uWvvK6XTl5E4iIIxicSmJcnEhdBML7cSmBeqtlo0aJFDB06VCQuglBApG5COn7iBA0aNDB2SAXSrl27eK9zZ5G4CEIBkboJadvWrbz//vsv9fkcJy+3b9/mrTp1sDI3x2vhQpG4CEIBcfTyZVp/+SXVqlXj4qVLWIgJIdMICwvDpWZNIqOjmX/2LJVq1zZ2SIIgkJzADG/QAKuiRblx/TolS5bM8Wdz1GxkMBgYPGgQcfHxLPrqK5G4CEIB0tLVlXF9++Jz6xbffvutscMpcEaNGkXwkycMnTFDJC6CUIA4ubgwbOZMQoKDGTFixEt9NkfJy59//snJU6f4qG1b3m/S5JWCFAQh70wdNIhaTk7M+v13Tp48aexwCoyNGzeybt06XN95hy4vWTgKgpD33h82jHrvvsu///7L+vXrc/y5FzYb+fj44PrWW5QsVoxry5ZhLSZxEoQC6aKvLw1HjKBChQpc8famaNGixg7JqIKDg3GpWZO4hASWXr2KvZOTsUMSBCETT+7fZ0jt2phptdy4fh17e/sXfibbmhe9Xs/Ajz4iMSmJf/73P5G4CEIBVq9aNSZ9+CF37t5lwoQJxg7HqFRVZdiwYYSFhjJi1iyRuAhCAVba0ZGRs2cT/vQpQ4cOJSddcbNNXpYuXcp5T08+7dSJ9mIUgyAUeJM+/JC6Vaowd+5crly5YuxwjGbfvn1s2bIF9/bt6fTJJ8YORxCEF+gweDANO3Zk+/bt7N69+4XLZ9lspKoqtWvV4rafHw/+/ZeSxYvnerB5wnCHOT//xfoQJdM/S5KERmOChUVRbG3sqFKpNu+3akp9m4xvv1ZCDzLyp21cVazpMvw7/lfjJd/ZpLvF7z/OY0u4TPVOE1jY3h5N8opZ88dPzPdXsGsynM19a7z8fhY0b9o+FeL9OXThAu9+/TWffvopixYtMnY4RtGxY0f27NnDsuvXcXJxMXY4xOyewNRfTpKoguzUn7HLh+OkNXZUQkGnPFrDH/3n42+wo8lv6+jbwNTYIeWp+7duMbB6ddq2bcu+ffuyXTbLy+fYsWNcv3GDwe3bF57EBUCJw9/vGqceZJ68ZLSJX9bVY8q3U5hYp1iaqig1MZSr165xSi1JrdhXeIuCGsMd3+uceiKR1CAh9Yp56H+NU9dUyleMffn1GoUO7yP/sv2BAa1DE75uWSntl6dQ7lM2CvH+tKpXjxqOjqxauZIZM2ZgY2Nj7JDy1e3bt9mzZw/1WrcuEIkLShDH//6bCycjk/997in7Rn3M0EZ5eCNK8ubIrO080Gtx6PI1LWuLTKkwUuMf4n/qFNeU8lSMfK13KBcKjs7OuLVty/79+7l16xbO2bwvMctv9Ny5cwEY1a1b7keYT7TlmjGpSx2spdS/VVH0SURHPuHqlTPsuhlKQuhFpvzwG+XnTmGgfcYaGAFAx8UDy/n2jA6zJqX5PH3yIhQYkiQxqls3Rv75J0uXLuWrr74ydkj5av78+QB0Gz3ayJEkMwSs48ChKJCLU9QqmthIX44sP8bARm0wz6uNJl7kwNRvOZNoRpMKn4vkRSg0uo8ejdf+/cyfP58///wzy+Uy/UYHBgaydcsWGtesSb1q1fIsyLwm2dZiUI+eOGXVs0eJ4tji/9FpnS+xYaeYse0WHwx1IeV5SFOiJb9Pr0S4Yopj1Vy8+DUl6DV8OrVjFCzsqubeeo3pTdynQmxA27ZMWLSI+fPm8cUXX6DRFIykfPz4CURFRTJv3jxk+ZVerZatmJgYlixdip2jI2+/916ur//l6bm/ajXX4lXkKgMY/sFZZv/oRfDWFZyb3oYW1saOTyjINGV6MXxXbWIUC+zqvWS3hUKqQYcO2FesyNJly/jpp5+wsrLKdLlMS4+///4bg6IU6lqXHJGL0aJvN1oXAVC44+vL09StTeb2NHRrQPsGrrgUz82C1hwnFzfaN2hAC6dC1CSXrTdxnwovqyJFGNS+PXf9/QvUe49+/XUGf//9N+PHj8+T9a9evZqoyEi6jBhRMBK2JC/2r72MXtXi0P1D2nzQA2dTCTVkF/u3BJHTxm3h/6kiTri0aU+Ddi1wKpH7yX5BpNFo6DpiBDHR0axcuTLL5TJUJyQmJrJ40SLsbW3p0bx5ngZZIFiUxqGYDHEKGPQkpf5bUihX/R4TpZpi71SVypaZfHnigzhx+iSHfB/wKA4sbcpSr+7bvPeWA1k/VCXx6K4f/rEqZrZOuJV7NgTdEIqXlx9BijkVa75FzWIyxD/i6LHj7PcLwtS1L1ObpR7/Hk/AtbNs8/Ll9tMYdKbWVKxcm87N3KiRWaypGcK5cu4Ue67fIyAyAUytKFOuMk0bNKKFgyXPi31dOL4BwUQbkngQl9zmqsYGc+XWLUyRsSjhgEtJ86z3KZ3Yx97sOI9ti8QAACAASURBVHOJi4GhhOtkrGzKULtWQ7q4VcQ2k3uNEn6HIz7BJGhKUd+tCvZyAgFXT7LZ0wffsHhUCxsqValHjxb1qJzNrPhKfBBnz5/n+O1AAiPiMGiLYlvclopV6vJeQ2fKvIEPNSO7dmXOli3MnTuXTp06GTscAIoUKUpcXCy//fYblStXZtiwYbm2blVVmTN3LiZmZnT6+ONcW+/rSDjuwRFfPZi40qJvfUyrlqRFw++5cTySCyvX8+SjMZTJ7HsfHcC926HosKRUTWdsM+0eE0fYzVuExoGZfTWcyhVFF+xLQGA0hoQHJF+uKrGBV7h1wRRkC0o4u1CySPr1xPL4xA7OHLlI4MNwdBorbCrWplbHLrjVtCVjeAZCvfbjF6RgXvFt3qppi0wsj45u5Pj+iwSZtuSLqWkffOMDTnN22wF8bwcRozPDuuJb1O7cDbca1i+YKTWB4LPbObXfi/sPI1Gt7ClXvx0tujXGzjSce8dP8zhGwuatdlR3SI7U8MgLr0tBKEUqUrNFTYrJEH/3KMc27cfvnimu476lWYVUexUbwLVd2/C6cJunETpMS1WkcrPONGtTgyyLUSWSh8f34Hn+JkH3g4hVzLG0r0gF91Y0bF0Hmyy6MymRt/Hes5+bN+8RHBSJYm6NbUUXqrfqQL06dmQohhIfcfeiP7GqGbYu9ShnDTEB13kcmoSisaZMncoUyyrGhCDu33xIPBqsnOpQ1ibdgq+y3/mkw5AhLP3uO+bMncvw4cORJCnDMhmSl4sXLxISGspXvXtjavIGlujp6cMJiVEBiZLlymOX6qQZQg4yfMxCTqklGTpjNX+7pf5G6rhz/B8+nbOFo6E60nSlWrmI0jU6Mn3M25lv0xDC6tljGHdNpXznGQR+6fZslZeY9t00tujLMPr35fxssYOBPyxi66MkVDTULtLhefIS63+ACbMXsuhqWNqEC5i8sAaffT6R31s5YJZh4wpBF9cwYvYatj2Iz/DkJ8lFcWkxkIVf9KBJMRkl7ACfDFvACcN/yyRdXkLjYUsADbX6z+PqJ85Z71PKVmNusXjBH3y3z4dgA+ksprhDE8aNGcP4+iXSFJa6W5v5aNJugoq2ZsOK7gTO/plJJx8Rl+bzq/luWSN+nvItX7mkL5kTuL53HoMX7sErwkBmXd6Klm/Jb1PGM6xKnvVAMApnR0ea1KrFoYMHSUxMxMws47chvxUrVgxZNsXMzIIRI0ZSoUIFOnTokCvrfvToEdevXaNFr14Uf4l3pOSdCM6v2EKwQUJbvyfv1NaCpiLNezZm6YnDJJ5azUGfkQyombFJWn/iR8Z1XkKYpglDbx6jb+VMMhy9L9v7NcTjsorD18dZMrMhYas+YdhXJ/jvEkvi8qTGDJsEmNSi/+lLfOKWsj2FGK/FLBj5Hfs8gzGkvzgmFsehyzjGzB1P/TQZViKXpvVg2pYkyow+xPKfi7JjYF8Wbb1Dkgqa2lb/JS+x1zkwYTgLF50kLCndBiaPp8Znc5j4ex8cMvlqGu7vYvmnI9lwIIC0H/2RxU6d+NhjJGFDu/Kvr4ZGS5/wy+DkGl/d4Wl899EW9BVH8/uNn7FYOJAfJmzlUbwKJrUpMmQyzSoAxOK/agKzxy/i6qN0pag0mYUNPuNzj99pVS1tcPHXljN30P/YdzE04zGTZCyqdmPwisX0aGSTKjGLxX/5F0z/3wp8Q3UZd1a2ony375m4eAwuqZIMw4PVzG4xjmtKeTrvuc2XbUyI2/01n4/cT4JciW4Hb/B5y8yv6+jNoxk5YCMx2gYMuXSaAc/77b/afuenYra2NO3alcNr1xIYGIijo2OGZTJcNZ6engC8XRB66ec5HTd372J/rIqkKU+vNq457EBn4P7hX2kz7SD+BpA0VtSoU5dG5Ysjx4fgfeUSF27u4NNJl6mUkJwYvSz16RE+XTCfraHK8xtuylpifdbR5ZvFHA5XwLQk9V3r4FrKnISwOxy77MvDyJvMn/Y/nip/sPJd+1TJgELIubm0mbKFa4nJiUqVmq687WiLhT4SvxuXOBkYzfUjC+gUksih3z+kLhIajYxWBVVVMKggSTIaCSDlvy8Qc4Up4yYx7WYsCmBmU4nmb1XDqYiOR3e9OXorhMjAE0yeeI+7k39nUfNSGZ/G1HC2zprC2lNhFCldg041nShroeeJ3yX2+4aSEHyWib8sof6i0bR8XgOj8PjoLDrNPECAApoi9rjXccGlVBGk+Aju+npz8n4UsQ+O8sUv5aj79yc0fMPy9UYuLpy6do2rV6/i5ub24g/kg1KlyjNx4go+/7wZvXr15tSpk7z11luvvd6Usqvm21k8NOQz5ck29u8MRpXMqN6rD8kVAzJ23XtT55sjeMZc4qCHF31nNMr4xP2qJA0arRYVFdVgQFUlJI0GSQI0mjQlUczxKYzrMo2bEQpIZtjUac5b9Z0okviIuyeOcutBJIGbJzPx+l0mH1pE83KZPI6rQRz59Gvmb32AkqGg8mRdl84sPvwEBQtK1m9JHdfymCc84s6xo/g+DOHm/AH876mBP1b2I/VYCeXhRn5790P2+iWCZEKxms1wdauEpRrGg7NHuOa3i0V9A6moZDcCR+Xp+k9Z8NVWQvUZgsNnZhe+mXiYcAOYlquPa3NXShVJIMz7GJcvPCTy3HymtXuKcnQl7z6rqVFCtjO3y2fsvqsDjRV29ZpSs1Z5iqhRhN44wxWvQOJ9N/N3L3NKeXrQ0l4GFCK2j2HSZ0t5rAPZypGqTRtTsbwVatRDAs4c51ZgNA82/48p5uVZ6NEL2yxrPmRK9uhH/W8OcioigDMbTzGsZSsyVvSE47n1MLGKhEmjPrRyTjm4r7bfxuDSqBGH167F09MzZ8mLl5cXAG7ZDFEqNBIj8Lt7h6h0N1hFF0fIk3ucPrOXhQdvEIkVb/f/mqmuOUtdlLDDfDnnEP4G0NjU54epk5lQJ1X1Z9JDtiz8gcFbfPF9pdFt8RxbvZgboaZUbdyNr99/h7YuFXCwMoV4b6bOWMLhcBWrql1ZMmUoPcv9F3di0Bmm/jydX689Yf28BXSsO4UPU9pKo88xcfY2rieCxqYeU7+bxETXVNXCSjhHl31Lt9XXibi2hvG7WrOvWy+O7OsFxLH8m64MPqPDtPF4nv7Ulgy1z5mKYe+iX5lxMxYFc2p3HMvakW2p+fzDSdw7s5wB09dxKiqQZbP/oln17xlol/bqVWIvsuq0FU37TWfNoAY4pJT2SjQnl42n46qbRD88gselobRs/OxSNvgx1+Mw9xWwqv4BW3/+mFap26aUp+z+4wu67ggkMeAsuwIG07BKAegnkYtSrmNPT88Ck7wAVK1alylTNvDNN53p2LET58+fo1y5cq+1zpSyy7lA7KdC8L8ruRCpgEVj3ulV6fl1JpfpQst3xuO5I5IH61dwZUoj3HJ2Mb2AjP3YI+wbC0Qv55tSgzmTaErjZU/5aUC6DUTsZdHHM5ITF8vadJy/lpEDav53TSfe48zUAUz/9RRRt5Yxe3Qzqm8cSLrLkvhj01h84yGmVd+n29fDeKdtIyo42ACxeE8dzJLDT1Ct6tF1yXqG9qzy38NhYgBnpvZn+q+neLJ+LAs6vsOUD8skl6HKE45+9Tn7/RLBpCLN/9zE/4bW/a8pwxDExam9mTrtBHcUyHLQbMwxVk+8Qah5VRqP/Jr3+7TFxcUBKzOZ+BMTmTH5MOGqFVVHLmHKrz0p99/OE7RrKj8P/JVr99Yz76uO1N3wISVkhaf/zuWgvw40Try7+igT+lRI9XCYRNC/w/hf/+U8eLiJret+ovkXTshKEEfnruGxTkV2+pBJR5fRqkKqmJPucXRYO35a7kvopvkc/qkHPbMcZQKy3fu0bl+C0+tCCN61iWu/taJe+ltXxH5OHI5AlYpQp0/P502T8SemvsJ+ZxlKnkq5jr28vOjRo0eGv2cIy/P8eUoVL45j6dJ5H10e0/mupe2nn/DWJ2l/6g7/nLZTZzF13w2CKEX7odPZPfitbPqopGbAZ88WdkSoIJek/9hv0yYuAKbl6DbyB/5o/KL23CwoEVy9G4VLj584/eNnfNqwKhWsTJFReHhwDYvv6ZGK1uWnKaPSJC4AZvZv8/PU0fSwkVAiTvPHznvok1fKvQMbWfdEQZVL0nfMt3zjmq49W7ah5aAvGF1Jg0Q8p894EvqaPQoNQfuZeeAROiRs3Yex+cvUiQuAKU5vf8LGr9viKIMScYbft/s9izk1CZuGn7Hq41SJC4BsRdN+H9DFWgI1ipv3gp5XmSth1zgTaEClKG179EubuADItrR9/x1qagA1hrCoDO1ZhV5K8pJyYy9IGjXqyOefz+HRo4d06vQe0dHRr7U+T09PkCSq1q2bSxG+BoMPB1edJEGVsGjRh+YOqUoC2Z7GvVpRVAYlcAv79kbkd3AErZzJgTs6kG1x/3UzX6ZOXADMnHj75418PcARGYWInb+z/WL6q9JAxNWrRLmM4afTW/js0w5UrWCDqQzKw9WsWXwDvVScuj+tZ1TqxAXArAJv//wvo3vYIykhnP5jMfeerd7gu4xNW4NQJBMcRi1nwvC6aftgaOyp9/0qhr5XIts6bSX4KnefutBj62l+nP4pDetWwMpMBuUhB6cv5l6SRNF3fmLKn6lv4ABm2Hf6mal/9cBGVojY8Qc7r+sBhdAHj5Obisxcce9YIV1/IFPsu09h4NAOuLVpSUlCk8si5SEhj/WAhIlrWxpVSJdsmTrRbMoUOndoi1vLshCasfRLy4ZG/TtTQgNK4C6OnUzIsETM/q1cDFegWCtadS//LCl81f02jiqursgazfMa1fTS3FujoqK4desWbs7OmXaQKWwkSUYrZ/YjPf/Sq4YQ9i78ivrfrORoeA7u1EoI+7380AHacq0Z3qh45gmKXJp+fd6lyitmrZpSbfhlSP20Wa8Szs4Tl4lCwtq9EwPKZV5LIJdozrAWdmjQ433uDHcMgBLBvrPXiQO05VoxIqvESlOF8b964OvhgfdXLUnfx+vlKDw5e5ozCYBchv79OpB5xYZM6cb9GOZsgoQBn7OnuJY+j5CsaN+uFRUyi8fUDidbGVCJjI55nrzINm1YvnQFPh6Lmd808w7E8RERRD3r2JiD12kUOpXLlsXa0hLP8+eNHUqmunYdQa9eX3LlymX69OmLXv9qhaWqqnh6eVGhRg0sCsA72AwXV3HoYiLIxanXp2uGZgDr93rjbiODEsIZj61pRznmNeUJZ3ecIUEFuWJ/+g2ukkmnXEAuTeMJw3A2k0Dnw9nt18iQ3mvK0+aXH6iftqAifOdmLkepSNbt6DQgq/WXofmwHthpVPTeeziTXFDx9OAB/JJU0Naj3WdNyLQfvuxIq0/ef0H5pKFU/18Y0rpEmrJOebKTE0ejQLbG/dMBZF6MypToMYwWjhpI8ubczjuATCnHcmglIP4QGyds4H76+Ss1FXh3zi5m7tvD5C/ckpsD5fKULmcCqCQe+oNFG24Rn+Fj/Rizax8z96ymp9uLJy+0eLc/TR01YHjA2Y0n0vV7jOTC1oNEKzJWbfrSxF5+zf02DvMiRXCqWRNPL69M33WUJgW8dOkSKm9IkxGgrTUU3z96ZzLPi4G4yDDuBVxj+661/HrgNnfOLKP7Txac+rUnNbJrOdD7czXQgIqEdfVauGbTWG1a9S0aWW3CN/JlI5co7d702RDu1Nu+jZd/cudgNfAwY2d4ZvnkEXc/+SZgeODPdR04y/5cvqdDRaK4cy2ymzKgqG1Zqti+bMyZ0ePtF0ASIFvVpFX1bC5KTTna1Hfgu5t30T+4w+V4cE19D5LtqV4hqw5kGuRnB0JJ3QZuUgxHh2JpljTEP+V2QAA+gfe4ct2T9QfP4a/wgrd8FV6SJOFWrRqHL10iLi6OIkVypX0iVw0bNpPHj/3Zs2cLY8aMYe7cuS/98HTv3j3Cnz6lQefOeRTly0jA22M993WAVT1qVA7C3zso3TKOVHez4ui+SGIPenDk/gB6OOVTk6XOG78bSYCMVeNWVM+mtVxTpQ31nb/jpreeB1cuE48rqS9LqXRbmrZOPw+Hjtte19CpgOrL4bFD8MyyoPJJrmU1+OJ/PRGcNfh738KgglymHtUrZn1MzBq446RdxtP0IxZSyKVx79Y6Q/O2/rIX/okqoBK4biwz9mUZHPeTAAw8uHYdcMam9xg6/HmMrT7R+M3vy8f//kCdtu/i2rQptZs1x6WmXcb+J3JpWo4ZzMZj8wmMvsi2vnU4+kNz3N9tQe2mTand/G0q2r1k51jzprzbsyrbZ/oQunsjl+Pa0CBlRyMPcuLgU1S5FA0/6ETKxBWvs9/G4uzmxl1vb+7cuUOVKlXS/C1N8pJSPeNevXr+RWcUGooUt8OlTitc6jSgodVI2m26T/jl9czy7MTiRtmMuTVEERatAhrsS5XMfpZZk1I42Mrw0smLTCXHChk78RkiCYlMfkQLv3OK5TlJiuPDeBitgOVTnkQl36VfGHeuMRASGYUCaGxKUjbbXokaHEvZInMXVR9JcKQBLFMXXKZYvNJs6joeXTvE4n2nOHztBhfuPyU21VOumVUxikpRxLzKqgsJN2dnDl68yKVLl2jSpImxw8lAlmUmTVrFF1+0ZP78+VSuXJkvv/zypdaRUnYViP4u0fvYtzkgeSRf9GH+afYW/2S3fNwpDqzyoevkmpnXUOQ2fQiRTxVAg025stl3FtY6UspeBm8VfWgw6S9LuVJ1KmRYgZ7IkLDk/Q+/zKnll3MQVAxhD8MBayJDw5+XGcWyOSCylQ2WphIZhlum0FTCMZP30RlCQ4hUADWcO1uXk6Ni9PHD5G3admDUoV3Y/W8c/266SHjIdS6uvs7F1X+CpMWi/FvU6dCT974YRdMaKWmeTLEOfzJrlyN/j5vF8YtPiLx+kIPXD3LwT0BrRam3mtGw56f0HNWVCjmqODSlev/eVPrjR24/2s3xY3E06JCcvcQd2sqFMAW5zHu0bvffnFuvs9/GUt3dnT1Ll+Lp6Zl98uLv7w+As4ND/kVndJY0f+9dXLcuxdMQztmrAegbVc/m5i6TPDGomoPXdqtk2xk+m21YWVpmLMgkLaYmgE6iVPWWdK9q+eJxTJpyuJgCKCgKgISUBzObZuX5E7SioiaXl1lQUNSUkVXSK4zPymyV4Rz4ZxJ919/kqQImVuVxb1CXmuXLUrlceao7VaWB5UneH7YUrzewyShF9Wc99f39/Qtk8gJgbl6EadN2MGJEQ7766msqVqxIt5eYJDOl7HIweq2xQsQ2D04FGUCSkTUvuNYUA4qShN/aldwaN/3ZtZpzr9bUKSGlqqnM/rJUUFMKsUxqw2Qr67TPGM/WrzU1BRKQSjWgZfd6WL7wgtZSzsX8WWzJC6vxMSRk05ymxEQQl374ddrgsLTOuGeSqSkmgE4uRfVe3alq8+LSRlPlv9G3mrKt+GC1Fz1nX+XSvgNcPX2OG+fO4HP1AXGBFzi36ALnVq+m88q9fNGt3LNKXQ0lW41jstcXhF89gueBE1w7d46bZ85z90EUIRd2s/PCHg6u/oxv9s6nWWYju9LHVOsD3nGbwe0zjzm36SjxHTpiQTQXth4gUtFQums/6hXNvf02BsdnFSkp13dqae7RCQnJHX+Kmr9Z8128iGRlSTEJkvtMxGIgm5c+aUpQxlqGJyqPngSTSI2sl00Kwj/01dokNJklGBo7HEvIEAfWNbvy16g6mQyRyyqWYpSwlCBc4UlwCEk4Zxl33NP73AnXgUlxKjqW5NV7EGiwty2OTDDK0ycE6MhmKLKBu49CUADJ1Jqymbzl+2WFn1nEkPU3eapYUPf9/7F22Ds4p6tUM9w7+drbKeiKPLueU67vrEyaNIl58+bnaX+3iIhwKlbMfA4WW9vSTJ++m1GjGtOvX3+OHTtKgwYNcrTelH0zL1r0BUvmMeUBx1buJ0YBufqX/HVlJjWzvEj1+H1bn+E/eWO4tZ59x7/D5d2XaNZTool7lRfGau2xLSnDfYWnAQHoaJh17Yv+Lo8eKICEqV1ZMlyWGk0mpZsWO8cyyESBdWO6/jWbOjkvqChZ3h6ZOygP/QiMhtolsgjtymUCsu1jr0HOpBjRODhSQgNxWFNz5F+MavZqL8g0satNgwG1aTDgWeSPPTm56FdW/L6Z+9HX2DVyIu7veNAszUgQU2xqt6Nt7Xa0BSCRMM+t7Pj1ezZsvkn8tX/4Y2I76np0e3G5q6lGq75N8Dh7mKd7N3M5tiNvq4c5eSAEVVuV5v2aprk/5NZ+5yezZ83c8fHpewmlu6umLGBuWvB3KjfpAh9w71mtROlSJbJvUjGthFslMyRUorzPcyzjMX0u1tuLU3G5+Ehv4oRbJQtkFO7fusH9LC9chQj/C2w+dozNXv6EK4C2IrUdtUiohN+4jFdWVa3EsWvuaFw/+YT6M/YT9FoDcLTUqVYJC0CJu8reS9k0zujustPzUXLi6FiNuq89P1ISJ0+c5ZECmpKtmTY8Y+ICYIiOftZh981l8WxyuhclL3v37iUyMgJ7+6p59lO9egM6dx6aZQxOTi58//0mdDod773XOdMnrsyk7JuZRTZNvvnA4LeOA8djQTKhYs9+ZNfNC7RU6tODyiYSGO5zYsXe/5ovU+ZmwYCSRR9m5fFF7gS+wgVqUodqdSwAhbiTe7mUTbO2znsnnneSH+cc69fNZNLLzJji5FYHCxmU+57cyLqgQom4zoXNGzm2+QD+4QpgSpVGdSkiA/GnObMzq1coROC1bjdhr7L7Nd2oZCmD4T63zt7P2An5v+DwP7iZYxs343UtHIgk4PBmjm3cxLkrIRniMi3jTqsp6/n1l1aYS6CEnOaydxJE3uTi5o0c27SH2yHpP2VGCfc+DFq/l09bFQUMRJw+yp0sy+fUZOx6fUDdYhJK0B5OHIkh/vBWvIIVNC49adUg7Zfv1ffbeEyzefBKc5/+f5m8GB7iseEw/gpIGgfauDu8oN25GB2a16P42VNEhB7hly3dadWvcsbJ7ZLuMnf1ER7k6igCS9o0qY/18eOE39jBjPPtWfh2JqOGDI9Z8ddkxl5OpHjzidx1qwiUokNDZyZeuUbCo4PMOtSLph1KZ/is8uQIHl7RKGioWbc+mfYhVJUcvpNFpuTbLWhteY5tMaFsWLWR4fUH4Z7hYBm4vWcZi+8ZUDGhfrNmOL92xYuBp9HJk+JpLYpQPLP1KeHs3fNsrog3tMMugMWz6zmzp5f0ihcvyYIF5/I6pGzVr9+ar79ezIwZg+nYsRNnzpzG2jr7iQxS9s3UqLXGem6vWo1PogomdWnxQZ0X9mHR1OhN8/o/43s2iYidHpx80pX2pWU0JUtRTIZQQwABN+PAOX2n2Biuz/2Hq9k1mzyjKumuVrkkb/dojeXubcQ82sCq2cOpP9U9Yxmmv82eKYu5p1PBvD7NujnnuE+OZZsu1LfexPHwc+yYsYf2C9/DOpOBE49XjGby2CMkFu/BxLttqAhYduhP4zJb2P8wnDM/T+Z0u0U0tU83mmnvtyxe8+DV3g1VvA1NWltzfFM4NxbO4PyghbxdKmMBYPBfwV/dxnI5rjjNPe7i5hLHxWn9+OtQEubtFuCxeygZPyZTzN4OUwkSkJEkUOIOs7rfaC4mFcV9gQ/Th5bLWNzIJbC1M0ciFmQ5x83mcplutG4znnMbgzi3aTfu0n4iVFOq9vqAKumfwl91v2vlMJg8kPIw8sKaF+XZl1xbEF5olhsSI7kbcI8b9zL+XL/jw5GjGxn99ReMOhOBgkyZZv0ZVe1F+y5j37IvQ51MkIjn1LJJ9Fl7kcBUmbL+qTezfpzMlKtxmU5H/zpKtOjDsEomoDxi6c/jGbX3Vtqnj/hANi/8me+vJKDKdvTq2ITkWaE1VO3Qi14lZVAj2THvW0Ye8Ccy1dUfG3ic/33/N7ujVeSirnzWoUqq7FbG3ESLBBjuXWDtZT+u3Qvgbnj2jwiybSsmdquCBRDrs4puk5ex82GqLFoXyvF/f6TT3HOEqGBSpg2TOjvlQsdFDeVK2qABDA+P8eeh+2leKaB/eoN//pjAwL3P5oVRE4l98b29UEq5nl91GLIxtG8/iA8/nIyPz026d+9BUlL23zODIfki0Gjzpyt6phJPcWDdDQyqhEmj3qlmNc2GpiotezbERAI18iD7N9xP7oPi7EZlWxmUII5NmcDJe4n/fSbhHud/6s0Pf/qgZjXFtcYcE1MJMHDvwFouX7rGvZt3CU8AkLHtO5FurhagxuIzrRuTp+zkYaoLRPfoOP/268TcPSGokgllPpxEZ5eXuCpL9KDPsNqYoOfR0gGMH7WCW2kKqhgCN4/j5++PkaBqsOv1MU1Spq+37sxHk9tRXFYx+C3lx+bdWLJ0N9evXOX26Z3snNiFUT3mcU8ujW3GjCgnwdHi62FUMgflzlJ+7jiKvRfC0tRExPtuZuGH33MlRkV26EXH921AtqNu67qYSCoJB79n+o97CEr7nhIS7m5n2a+7iFZAKu5KjZqmyHbvUK+uGaixXPh+EB577pG2HiGOR9u/Y92ucFRkLF0b4JTj+oMSNOrXCWtZIXzHtyzd8QTFrAHv9K2eSRn6ivttRCnXc8r1nZoRr/S8p/NdQ+sha3KwpAZ7149YN7YVZXNyLZjX4tvxH+M1fhGHI5+wfdFX7F1blpoOJbFSIvC9G8iTJBXTci64xfrglZtzUJm6MGnCp3iN+5sD4b4smDGMZQvLU7OcLUWVaPwDAngQp6BiSvX3RvOj+39t6LJ1U2Z+1YXL32/haqwff0/7hDWLKlCjjBVybBA3ApJHE0iyLZ0+G81naSYCMKF2FUdMjt8i6dFBPht7kDTvNso6YBp+OJFZd8fz+akQHl7w4P2Bm3B0qoCjhZ6g+/7cjkoe/i1b1WbyxOG8Vyyb0TqLMwAAIABJREFU1eX8QNG0XRtq7VnNFd0T1s/4mIMrK1CthAVKbCi3AoKIMMjYv9WA+r7nuRAfxZZ5n/PwxiC2f9Yoh7MHC3lpyJAfePz4LocOrWHo0KEsXbq0QM8/FX/Ag2P+epCKUrt3r0xfuJiRhjI9e1Hru5Nciovj6qrV3B8xCSfLtnQe6MKRmddI9F7Ady6bcaxTjWJSJME+N3gSoce83hi62C5gy8FMGgBMa1OlugnHPZN4tPozxq4m7buNzBvyoccs7nb4nFOBD7nww/sM/MsRpxqOWCQFcf/abaISVZBkrJpOZuJv7/Fyl6U5LpOW86lXB/4+EITvgsEMWzaO8jWrYFtUIdr/BgEPolBUCdPqnzL6x3aprjkN5T5bxrcPe/Lj9JNE+m1n1cfbWZV69doyuM/4nrILRrAtAl626tS00SQmTPNi3LgDhHstYIb7MhZWrUk5+6Io4f4E3HxAnF4Fi+q899ePuFslx+U0Yjo9NnRi3eXHXJzaiQ9nlaVsZYf/Y++8w6I6vj/87i69KEURRFEUxYagYIk9GnuiUWMsscYkatSY5GcsMYpJjCV+E2NiiyaxG1vsxhYL2AMqAhawoIhKlSYsLLt7f38ghrIUdZtw3+fhefTeu3s+d/bOuWdmzsxgZysjOymaB5ExZOQIIHWk2cxZdHAAaETfBZ9wovcibj/6h3W967O9eh2q13TCSiYnLfom92NSc7decezMsFkDnqusbbq/R9sam9kfHUkMEiy6DKJjHc0P34vdt3FSjjvLS0aCFDMre+o3bs/nny3m0v9G0L7Y7TmLYu05iD1LZvJZ82pYSUCR/pDL10IJvBFNrEKGc6O3+O3r4bTQwd5WVh4D2bNkNtNauWIrhayUGC5eDSXwehT3M9WYVKrL4A/nc2xyW6oVuCUp1VpP5NiiSYxu6IA5atISo7gQFsq5O/GkqiTYuDTns5mL2dqnVqFkYBmN357AvE71qWVjhqnkOXZsMnNnnP8v7Hu/E96VZKDK4N7ta5wKj+RmWg5ILanr9y4bf17IbC/tLTBm0WgEf07pjW8lGRKUJD28zbmwcC7ciSXdrDo9B3/F8fmfMdbbFikC6bERnL6bUvxYsIhekUgkTJ36B15e7Vm7di3fffedoSWVQBJn1+/J7QWt1JkuA2qU2blKa/anU3trQEB5aTNHLioAK7z8N/PpiKZYy0CQx3LvQiBh568Ql2pCtW5f4r93Dp7FRdkmjXl78Tw6+dXCxtJUY9Bn1ngc/qf38f673lQyBVXKPW6fO0X4xZukZYPUti5+n2/k54Oz8aqswUZpWPkwcE8As6f1wtVWClnxxFw8S2jgeaLup6E2qULdwfOZf2wZbasVKi2pE77f/sOqo78woF9ralSzxcTEDKtqdWnw9iQmHDzH3I9dyH6iBokpZhbP21drhcdne1iyZRqt6tkiJYuUyItcDQzketh9MlUmVPIZzIf7jzG5T77h9cod+fDQfsYN8cXODFRpD7h/+TxhgWeIvHqfDKUEizpd6P/HMeZ+5vUsEdqm43y+3/89nX2dMCGHzAcR3Dp/itAzwdy9n4pKYoNLl0+Yemw3A72eM23DqhNdB9TN1SixxWfwgCLbOLz0fRshEiHffN++ffuyd+9esg4fxrwi5b28FCqSosM4efUuMRkCVpWqUL+BN23dKmFCFvGPkkhRgoWdE2622t71T03qo+ucCr9DVGoWgqkNLjXq0c7LA5dSf74c4qOucjriHjFPcjCxrEzN2o1o38AVDbMLtYciiSthYVy6n0hKjhQbOxe8mnjT0sVKdxUlK56gkFBCHqUgl1pRtZo7bb0b4paX25kZzaGAYG5kWeHp05bu7rZGXWmfl4CQEDp99hnz5s1jxowZxV7n6+vL7dvR7N6doEd1pZOamsSECa/x4MFNNm3axNChQ4tcM2nSJJYuXcqGyEhq1KtnAJW6QsWTyLNcOhdOfFIWskrVcWvZCa+m1TADMh/dIikdTO1r4Fz1xfN9FI+uEHb6EvcfppAjtcHO3YsmHVviYqudmqBOjeL6qbPciUogSzDHxqU+9dq1xcPlxTWr7vyPTxt8Qbi65N2VyyCORxdOER4WRWqGgKmdCzWat8PL26XE2Zw5Cde4dvYyMTGJyLGmkpMzVet506BpTSyLLTYFKdfOE345koTEDLB2wN65BjW8W1KnprV+/c4L3rc+eRQVxdA6dRg3bhwrVqwocK5cDxvpBxmObj4McPPRcM4CJxdXnHRmW0pll8a86dL4BT5ripO7D/3dNenWIWaOePt2wttXjzYtnGjR+g1aFHfeyo0ePd3ooUdJImWncmVHFi78m48/bs2oUaOpWbMm7du3N7QsPSHDpn57OtTXfL9WLh5Yuby8FTMXb3wHeqOraimt7E7jN90pi6dSJ53l8KrjJKor4TFkAq9pHAJR8XDXXiKVQCVvGjR9iS5uaWVcXnsTl+fcjNy0aiO8+zbi+fZDN8OuUQfaNerwfMZ0wQvet7FQnhqYIiIi5RRXVw/mzt0DSOjb920iIyMNLUlER0hNYgj6nz9/zJrC8kVHSdEwpUhxfRXL/3cWhSDFvudgWmllOxORVwkxeBEREXkl8PJqy/Tp60hOfkzPnr1ISDCu4S0RLVH5TQZMaIYFOcT8+g4Tek9m26a/uRJ0hVv/HuP4og/4tNMnnI9VI3XqwaivB/AiKTkirzbisJGIiMgrQ+fOg3j06A6//fYlffu+zfHjx7CoYCuCl3+saOy/h69lH/PLjweIOfQzKw79XPASiSmVmo9kzKqf6FPq8hYi5RExeBEREXmlGDp0OlevnuPcuX3MmzePb775xtCSRLSNzJWW/ntY+0kEYUdOEnHzPo/jEpELVlSuUR+Pdt1p2ca9hMRYkfKOGLyIiIi8UmRny0lIiAHAxUUL2aoiRovM3hOfQZ7oeVqByCuAGLeKiIi8MqhUKr77bhi3bl3m448/Zty4cYaWJCIiYgDE4EVEROSV4ddfp3L69C569uzFkiVLjHrFXREREd0hBi8iIiKvBLt3L2f79h/x9vZh69YtmBhyHyMRERGDIgYvIiIiRs+5cwf4+edJVK/uyoED+7G1NeJNV0RERHSOGLyIiIgYNTdvXuabbwZhZWXF338fwNXV1dCSREREDIzY7/oCKG/vZPjPJ7ivYeXH4jGhzdB5fP+aZemXvvLkELz1Wz4/nYzUrTdrP+9BbXEpBpEXICEhhhkz3kShyGL//n14ez/fYuwi+VCGsnP4JE7c17D1qESKzNQCS/tqVPVojGe77rTu1gxHHWws+yqQE/wD336+i2RpA3qv/ZUeogMzOsTg5QVQZz7iUng4kc8VvJhil1xR9isWSH0YydnwOKQ5Lck0tByRV5LMzHSmT+9NUtJDVqxYQc+ePQ0t6dVGncajS2cJj1SWeum+77/E1KUFr09ZyIefdKJKBXtTCKm3iTx7hjipgpaiAzNKND6SgqaDIhqQUq/9cMY3taH0OQ8y3Bsay16dIhWJV7E+q1RK5sx5lzt3QpkyZUqZp0QLwqt4t/pHWq8/w8e3xyaf4xKUWWQkxfDg0ikuBoSR/OhfjkzpxqV/FvDN1s9pKKYZieiZkupzgeAlL3tfqaooPQQviwTnJj2Y/I6zmDwkYrTkKHNb2mZmpQfP2dlysrPlOtVjZmZR4hRnQRBYsmQSQUGHGDBgAAsXLiz1O01NTQFQKUvvVRABiXNbekz+FOdiHFdW1AG2jB/HxiMxJB6ahv/Y6izbOJiqoqMT0SPKnBzgv/qdnwLBi6Vlbj6GPDsbG8uKkJshIlL+kWdnA//V7+KQSCRkZWXQo4eVTvV07z6K6dPXFHt+27Yf2LdvJS1btmLDhg1IpaW/MfPuLVuu28CromDh3ptRu//GsldHfj2RTMK2Gawf0Zv/6yF2v4joD8XT+qzJd2kMXrIUCj3Iqsioib99maB4BSZVPenq4YA0K5bTp09x5MZ9HsnB2t4Fn+YdeKe5KzYlfZUqmSsXznDw6l3upWaBmS0urnVp17I1HWvaUGKamfwRp86d40TkfR6k5yCzsse9ThN6tfWjcaXSEtTk3A09y55LkUQmZoKlPXXrN+PN17ypX6Lg/F8Ry9nzZzga+YDYJ0rM7Vzw9mpDP79a2BV+X6kSCQ6+SazaAvfG3jSuJAX5Q04GBHLkZixmPoOZ0965jIYrFnnBS2kbGH755Zds3LhRp1p27dpFZOTFYs8HBPzFypVfUKtWbfbt21tqwJVH3r0pxOBFe1h48c7iTzje8hsiFdGcWLWLMd1GFK2bgPzeWc7vOUrkrVie5Jhj5+6N11v98GtoV3KvtDKeWwf38O+5q8QmZoKFPY4e3nj16IV3fbuS/VdGFKH79nP5UiSJydlIbavh4tWGVn274e5QeoKt/O4pzu45RmTkQzKxwb5uc5q9+Sbe9e1K/exTAcSePcCZoxd5EJuC0rwqLt7tadOvK7WKOjASg49wM1aNhftreDd2QEoGD0/uIPDIJWLNOvHpnH5ltFtxUGRlAWUIXqyscltcqRkZ1NSDsIqLkuCd8+nz92Mqd/Hnev8Exn/3G7sfZhfMT9i0Bv/WY9g2axCtijSG1cRe2szHizezJ0ZO4dxhidSaRh1H8uunA2hbqVBFUj8heP8KJqw5TFCKqkhOxAzrmvQdPJmlQ3xx0eADFA8Cmfm/X/glJJHsAmc2MN2+Ie9/NJk3S7x/OVePrmL8r/s5naQsZP93pjV8i19mjGdQzXzDHDmXmTd7HruULkz6YS3fWe5j5Der2P1QgYAML6ueYvBSDGmZuRmHefW7OPr370///v11qsXFpXqx565dO8+8ecOoXNmOgwf/xsnJqczfa21tDcCT1NSX1ijyH7Imw+nccj6RpxVkBh7minwEHa3zXZBxlaPTx/PrqtMkKQp5kq+m0fCjX5jxwyBqFpm1pObx8QUsHr+AMzfTKZLaILOj9juz+Xz5ZLwcCvuvFCJWT+Gn2eu5EZ9T6IMSVlf2pO3UpUye1gVHTTGM4jaBMz/kl19Okphd0PCG6dVo+P4CJpfswJBf3ciq8dPYf/ohygJfIeH3aS1565f1jB9Un/88WDaX5w1g3i4FLpOOsfY7a/aNHMyq3bdRCCDzshWDFw1kpKUBmn1XgeClUaNGAITevk0Td3c9SBMRkk8z1v84e5PMcWvYmja1HbFRJnP5chAXE3OIPr+aEb97cmmSD//5DDUJF5bS1X8X4dm5gYpHYx9ec3PAUpnKzWuXOX0/nasnVtA7IZtjPwzD91ktekLgmqn03XSdFAEkpvY0beqNr7MV2Ul3OBUSQUzGfXb+PoOrj77i2P91wDWf71DFHef9KfPYHKtCQIaDW1M6N6pBFamc+7evcCLyOqsWzSSgelYxiaJygrZ8xVurLxGnBssq9enU1IMaFgoe3g7hZGQiCdd3M/yLNFQ/fclQ56LeR3h8gg9XLGd3ovqZDXGR+OK5cvs28F/9NkYePrzDl1/2Qa1WsWvXTho2bPhcn8+7/k5oKK/17q0LiRUTWU0atayN9HQk6rRr3LmlpKP309dGRhBb+r7F6uNxqLGkim8nmvrUwCLrIbcDThL5IIHry4fzxWMVP20Yyn9VWU3KwU/5v3eWcjdTABM7qr/WicYNnDHPSSDm/AnCIh5zd+sUZjyQ88PRL/F81mmYwhX/Hsycd4EMNWBejTodOlK/ti05D8MIPRlMQuoNTn31JnfvbOKHVf0L5umoojn+flfmbY5CJUiQOTSkaefW1KgiRX4/lCsnLnJ91YfMDKhDVjG5ovKgRXz11gwuxanA0pX6nTrgUcMKxcNQQk5eJDHhAruHdydNdZIvh9Yq2nskxHLiwyks3x2DWnRgJXL7yhVAs+8qELy0aNECgKAbNxj6xht6kPbqk5kSQ9jtjFKePQkyGycaVrMp1IUqkHLpH/bZNmH6glnMaen0LFJXp4fhP20a312Xc+vEYY6P9eGtvJPpF5ixeA9Xs0Fm35w5s2cyw8fhv0qiTubkmln023SVlPDNTDvQhcP9XJABKf+uYsyfuYGLjXsvls+awHD3/6La7NhzzPluAd+HpxFxcDGTvBqwo4dTrm51En8u/4U/Y1Ugtafr6DlsGto0n3NQcPvUrwxeuIvgmNxaWbjiZoSuZfTvl4gTrGj+9lS2ju2Ih8V/n793bi3vLdjCmbgTfLaiNa/7d8WlQKHJCdi0mmuJZtRr048pfV6nW6Na1LQVZ3IVR3BEBJYWFkYbvKSnJzNjRm9SUxNYu3Ytr7/++nN/h5+fHwARwcHallfBMaF6nZpIiUStjifxgQq8TYAMQueM5vfjcQi2zXn7962MfceDZ1U5+x7n5rzHgu/PELf1M1b0eh3/YS65fiT5b1aPX8HdTJA6v8GoLRsZ2rFaPv8VT4h/P76ad5aMMwtY9dsQvp/ojgx4cmgG3y/8lwy1BAuv9/nsz8V0a/xfHo7i7n7WDh/FljNJ3F8znp/bt+DrkTWf+l01SX9+zi9/RqFChn3Xb5izaTpN80U3itu7+HXwaHYFR+Y2jIo4sFOsHf0Vl+IErJpPYOrW7+no8Z//VNw7wNr3RrLlzF1OfPZ/tH59G10LOjDkAfNYfe0BZvX60G/KOF7v1ppaNe1f9ocql9wICgL+q9/5KVCqTZo0wczUlOCICP0oe+VRcfHPL/D54AO8S/lrv/oSGjOJJDb0/Ggmc/MFLgBSWy+mDWlLVQmo0+5xNTZvBpiau0d3sCVOjSCtwuDJs/gyf+ACILWn06hPmVRHhgQ5Z88FkagGVLFs2HKU2yqQ2rbg+28/LxC4AJg7v8Z3X09heDUpCCns37aXS09Nq6IPsvRsCmqkuL7xGX8WCFwAzKjbfgJ/TWyDk6ZoTp3Aps0HuKaUULnZGLZOzB+45H6+1msfsH1SB5wlAglnd7D6bqGZb+oUwu6k0WjAXM5++xEftqpHLVszcbZXMShycgi5dYvmvr5GuRdQTo6CWbP6Ex19g9mzZzNy5MgX+p6qVaviVqvWM2cnoi2kWFeuhFQCCHKy5bmNEvWDTWxefQ2lpDLN5m5lYv7ABcC8Fq99t51JA5yRqBM4+9Nq7ioB1MRu/Inj0UqQVafzL5t5L3/gAiB1wsd/Gf2bmoLwhPD9R0hVA6q7HFm0gYc5AhKH7ozb+WuBwAXArPabfLBjNd3cZKBO4NwPK7mZNwFNdYODS/eRogap63t89mfBwAXArG4/Jvz1E22cNHkUNQmbFnDgmgJJ5dcZs3VJgcAFwKxWbz7Y/jMdnKUICfvYsfoqBT2YipSwMNIaTWbu2V189GFP6tWyx0x0YBqJCA7GtUYNnJ2LpgQUfPWYmeHj48OlmzfF6dJlRCqVYlKmP819M1LblozsrHmqtYWTc+5URiGD5CdPs1rUKRw+f5VMwMS1Mx+3KSYhTubBtO/XE7l+PaH/1wl7KaiTz7PvahYCUtzfGMpoV81JbVKHNkzv44k5kBN9nr1RKkBNTHAwl5WA1JUhfVvjqNGwFLcug3jPtehJdfI5doZkIEhs6N67Gx4azUtx6dCHAU5SBOVtDp57UPTWqnZl/vu+xdgXyc/Vu3fJzsnR2HIxNIIg8L//fciVKycZNmwYc+bMeanva9miBQn37/M4Lk5LCkWAfEMaJshMANQk799JSJqAxK47vYd7aE6slbrQYdwAnGQCytCDnLutAnU8/x44R5YAUo8h9O1TVbP/MvFhyMEbbIy4wR+rBmIrBXXc35w9lwmY4PLeNHpqdiBIq/Vh6LgWmEoEVDcOcCY8N3pRxxwh+HIOYILrkPG0LsaBSN2GMug9j6K61HGc23mSDEGKTfcP6VacfZcB9BnghlRQcPvgfh4UfpXKatB1/jf4ig6sRFITE4mNiqJFMb6rSFPMr0UL/g0K4kZ0tJj3Uioy2o7dyMl3X3ydF5mzGw2LW4JbJn36vcJ/Y6PKKELu5iAgobJnE5oXnf7+DGuH6ng4/Pf/7Ds3uaYEJLa0ad6A4ueeyPDw9cXzj+uEqmK4cksOHmaE37mPEpDaNKCNRwmGTevRsZEtS2IKJk/m3IogPCf3fiKPL+X9oOIG27K58bSVFhl1F3DLd05CtRbt6KLb2bzlhrxe1LwhYWNi/fpvOXJkPe3bd+C3334rce2XsuDn58eOHTuIvHiR1r16aUllRUdNRkparv+RVcLGXgrkcCs4nBwBECI5/tn7FFuVM2+gBFBFEnU1G2qHc+taNiDFpkUb6pcw2mvpXAfXfA1uRehl7ikEkNrTuHNLiv+oDNeub1Bz9nnuKG9yO+QJ+NihDA/jvlIAqR0N2vhQvAczo17H1tguiaSAB8sJISI8d4qCELmFpe8fLjZdIPtGbj+7OjKcu9ngls9fSap1o10Xccp5aURczJ2VWJzvKhq8PI1ygiMixOBFH5iZ81wr6qgeE5emBqQ4V63yXPs7KFNSeawGpPa4OpYQfAAm1ariLIVQlZLE5FTAgaS0dATAxKEqxXTaPMUUVycHZAWrPsrUVJLUAE8IOXOYkDJofpKUWOiIlDputUpwPCL5yQtejK3n5ejRjaxd60/9+p7s3r0Lc/OX30Qnf96LGLxoCyUxN+/lzmaUuuLsZgLISU1Iyj2WHMKZtWWqySQ9SAZlHMlJakCGQw3XkqdCF0KVkEiaGpA5UaV6yTluMrcaOEjhjpBDanwiYIcqKYl0ATBxpqpryZ7T1LUmDjIKejBlIqlJakDgSchuDpfpth+RmKyGfMGLtE4DaokOrFTy8teK811FfsG8KOdkSAijevTQoTSRF0ONWg0gQVKGxbsKIJE8bSmoUQu5DqRYK+r/envyGsQySV4/kFDqkvOCuugVEhMTzIAsSWVadupA8zKsB2PiWqvQESm2NqWsXyMC5A7LBFy5QiVbW+rVq2doOc+Iigpj4cL3cXSswt9/H8DBwaH0D5UBX19fAEJOnmTk7Nla+c4Kj/I6lwJzgxdpdS88XKSABBMzMyALSdWWdOrfvMA2A5oxwbWRBQgqhKf+i5fwX4JQ8sZyarU6n//Kc2BPe7IFoejU7MII6qI+TmKGiRmQJaVyy4F0aF6GJFsTD2oV6uKW2tphIzqwUrkSEAA8R/DSuHFjGjZowLYTJ/jx449xqFRJtwpFng9ZJRxtJJCsJi4+AQWexfa+ZD6O5nZyDphWxt2tCqYODlSRQrTwmHtxOdCo+PBf+eghMWoAM5wc7QEZLo52SIlDnRhHtAJaFttlpODuo0RUFAyPTJyq4SKFNGxo8/YkFjd9seaH7HmdXgXlZEgIEffvM2bMmDKtUqsPYmMfASCTSdm7dw9169bV2nfb2dnRvXt3Dh8+THREBG6enlr77opK1rl1nAjLAaRU7tiVBuYAJji5uSAlDeza8PbPi2la1sl+WY5UspNArIrk+zHk4FdsQyQrNoKH8dlgVgWXBtWROTtTWQrx6lji7mVDq+KNqu7cIUENSCywq567XpDMxQU7KcSpHxIXnQ0ti+99UdyNIrGIA6tJNRcZpIFNmwlMWtz+xXqAZTJxgkEpxNy8ycWjR+nyxhvFNm6KlKFEImHipEnIFQr+OHhQ5yJFnhMTd7zcTJAgkHwthOBiF0PO5MDSSfh88AG+C48QqwLTOvVznYyQyel/L1P8cl45hJ4L4rYakLnhW88cMMPLsw5WgDozlENXSljJVB7K0fDMIgvnmdX2pKmlBNTxBF2Lp9iUcPUTrl4MZEdAIEej0ou3I1IiS3ftAmDChAkGVlKUjRs30KZNG61/78SJEwHYvWyZ1r+7wpEZzPbpv3FfCZh40Hl016dD3GbU9muKpRTU0UFciy5+coc65SoXd+4gYOdRopLVYNaEOp6mgJr08wFEZBf3yXTOf9aWD7y9+ej9DTxWgUlTX+pYSkCdRtihEzwp1qqCO/sP81AFmDSgfrPcMRszLz/qWOV+PvRQAMV7sAxCj54hs4gDa4xnUxskqIgPOk988Q6MJ1f/IXDHDgKPhpNecieRiAZ2L18OwKSn9VkTGgPAESNGUMnWluW7d6MSZx0ZF9Kq9GyVOxNI+fAffjwWVyRIAFDHnWB9cDpqZDRo5kttGUgrv8YAXxukqHl4ciOLb2RpNKF8cBD//XfJASzqt6dfzdzmh2OrDnS2loA6kW2bdhGqMXBSELZrE1sTNKiy8aWvrw1ScriwbzMHUzTXatWjQ0z6yp+BX3/Pr7fKUigihYmOi2P36dO0bdOGZs2aGVrOM7Zs2cLOnTsZOHCgTr6/Z8+euNepw6G1a8lMFwPfF0UVG8iWwQNYdy4dJDKqDJjD4Pb/JW7YdO2Lr50UFBfYt/AgmquyikfrJvHVOwP5esyv3EIK0hq07OWHqQTUtzexfXO0Zv8VvZXDR5IRMMXt9S44y0BapTcdu9ghQUXitu/YEZSpWfutNaxZfRWVIMHUtx/tPZ92nzj2pEPnyk8/P59doZr9nyJsKZu2xmjQVRnfvl2wkQrkXPiVzQcTNGpHFcWhSf3wHziI73+9UsxbVqQ45E+ecGjNGtxq1eLNN4tf6lhjsdrY2DBq9GiiYmM5+O+/OhNZHpCnPuT63btcK/XvHnfTCi9l/SLIqNdzIAOrSEFIZd+yWUw4GpW7DsJTMu4H8sXXK/k7XUBq7cNHPT1yh5akDgwe2g8fMxCybjBv1lf4n3vAfy4gh4dXtjN0+lIOpgpIZC4MG/4WjZ7WfalDJ6b2qY05kB6+hr5f/8nx+HwRjOoxp7Z9y9trw0jTqL0yAwb1wcsUlA8PMnzaEtZFpBbogXlyP5Cp360jIAtkTp0Y01bMyn8Rft23D7UgMHHSJENLKcCgQYPo1093y6DLZDImfPwx8vR0jmzYoDM7rzzyRB5ev8bda//9RYUGE7L7NzZNeov3G3Tm133RqAQpVs0/Z/ovg6iS/23hOIBB47wwRcnDP4YVB4+MAAAgAElEQVQzbeI6IpIK1GTu75zKd18HkCXIcBo4hrb2ADJqjP6cTq6567Cc/awfP20K50k+/yWP3MnKQVO58FiNxK4Tb73fLHf0RupM5xkT8bCUQEYQG/u9zZr9t/kvBFGQGLiYb3t/yoUENZi603XmWGrnDf1Inek0dSy1zSWQfoY1fQfx5/H7+dbfUvL41I98+7Y/YWmak2IqD5hCHy8LUN7m4PBeLFl3kdQCtx1J4NRhrAt4ArKadBrTB9GDPR9HN20iIzWVCR9/jExWfHKQRBA0py5FRETQoEEDuvn5cXjRIp0J1QWCIJCZlYW1jnbGVoQtw+vTHUQ+V3egjDYfrePMEFdAwd+LhvLW30nImozl+k+DqavhN1LeWkOLcesJEWoy5effWdQ4b4RVTdz5pXT9ehdhWQBSKlWpRUMXW6QZsVy7F0+qCiRSB3pP/pG/+tTKN61QwdW939Dz5zPcV+XqsqtWm4ZOligeRxP+II1sQCKxpd3I79g30ovK+UXJI/jfV9OYfik36JCY2FKndk1crdQk3L9DRLICwdSV1u4Z/BuZgtTzfUKWDX8WAEEWIdtn0XNlMLFqkGBK1RrueDhYoE5/xLV7CaSpQWJWk49m/8Tytg65EXbWUfr3nccuhSlvTt3Jvp5l3f3x5ciQy3X2HOmKLIWCmu++i6mlJXfv3cPMrGKtPvz48WNca9TAqXZt1l69+tJTsMsNitMs83qdHZHK0q8FMHGk3rBv+fzHsTSw19DOzQxhe7+erDwai1qQgEVVajT2wMFaTXrUNe7FpKEWJJg1+IjZJ5fTtlred6h5/PenTHl3KVEZAkhkWLk2opa7PZLUu9y7fp+MHAFkLrReeoxvxjXMl1uSTdTKwUz7ZA8JOQJITLF2a0QtNxuUsRFE3UrMncItdcDLfy/zZrcttLFtBhH/68u06cdJVQkgMcO2TmNqutqiTojkTkQcCsEM19ZeZPwbTIq0Be+HnGP4fw6MrJDFzOo5leBYJUgkmFath7uHMxbqZB5du05CmhIkltT8aAs/Le9D7tZMmRztX4V5u+SYvvkHO/eNLnnDXR0iz8jA0tq69AsNgCAIvO/lxaPbt3kQE4Ojo2Ox1xbboeXp6Um3bt04EhzMtbt3dSJU28Q9fsyP27bhPWYMy/fsMbQcHSKlWuuJHFs0idENHTBHTVpiFBfCQjl3J55UlQQbl+Z8NnMxWwsELgBmNO7jz+l57/Nu3UqYoiIl7jbnwsK5+CCNbKTYVvfj85k/c7Bw4AJg6cmUuUvYOLB5bgtGmc7tW9cIDL3B9WQFJg6NGPvF13zVoLiprxb4DPyOgNlD6OVqiZQc4mMiORsayvmoBNLUMqrUfZ35839kWV7gYkBGLlhAl88/Z8ORI2S8IjsW/3nsGImpqYwdN67CBS4ADg4ODHvvPaKvXyfoyBFDy3k1kEiQmlpiXa02tdu8SfdpPzM35CYr14zXHLgAWPkwcE8As6f1wtVWClnxxFw8S2jgeaLup6E2qULdwfOZf2xZvsAFQIpDr5/48cgSerRywRQVmTFhXD8VyLXQaDKUEizqvMHATcfxLxC4AJjjPm4rv+z7lk7ejsjIIePeFa6dOkPkzURykGFZtxvvbjzFwiKBC4A1nlP2sGTjZzSvbYUEBem3L3MtMJAb12NRmDjTaOxvfP1VC4r1YD6f8V3AFob0qoelFHLiI4k8G0jo+TAS0lTIqvjw+vz9/LgsL3AxLmb07s2MN98kYMcOFNnFJh0ZhEvHj3P36lWGDhlSYuACJfS8ABw9epRu3brRtkkTAn76qcQuHEOhyMlh/7lzrD10iAPnz6N+ejvfjx3LF4MHG1idPsghPuoqpyPuEfMkBxPLytSs3Yj2DVyxK/XnUvDoVhinb97n4ZMcpJZ2uNdpQscGLtiWodIpU6M5E3KVqwkZqC0q4VqjAR293HCQQWbyIx4+UYKZHW7VbDUvKKV+QtT1MM7eeURCloC5jSP163nR1sOxhAX09Eu/r75i95kzAFhbWDC4c2dG9ehB2yZNjLJFn5CSQuNRo8jMyeHmrVu4uLgYWpJBuHr1Kk29vXGpU4ffQkKwKGVHbZGXQ50axfVTZ7kTlUCWYI6NS33qtWuLh0tpNVlB8tWzhAVfJyFZgcymCk6NW9O0RV1sSl3EKoukK6cJuxRJYko2UhsnXLza4N3SHauyBA3KJKLPnOTq1Rgy1FZUcq1Pg45tcXMwgcx4Hj1MQYkFdm5uaN46Tc2TqAuEnQ3jUUIGgrkdjvWb49XWG0djcWAaGNuiBZFP11CxrlyZrsOG0WPUKOr7+hrUp2XL5XzYrBkxN28ScvkyTZs2LfH6EoMXgJEjR7J+/Xr+N24c/zdokFbFviiCIHD55k3WHjrExn/+IVlDYl7FCV5EdMmA2bPZeepUkeN1XFwY1aMHI7p1o5aGfTcMgSAIDJwzh78CA1mxYgXjxo0ztCSDMmvWLObOnUv/Tz5h0pIlhpYjImIUTGrXjvCnDbL81GrUiJ6jR9N12DAcDODTln3+OTsWL2bGjBnMmzev1OtLDV5SUlJo0rgxiQkJXF69moa1Ci8apj/iHj9m0z//sObQIcKjokq8VgxeRLRBccGLBJ4tYtW5WTNG9ehB//btDZof8+exYwydO5eub7zB4SNHjLJnSJ8oFApatGxJ6JUrLD5xAp9OnQwtSUTE4Exq147ws2cpbqU+iVRKq5496TFqFK+99RZmWlj9ujRCT51icseONGnShOCgoDKtuF1q8AJw6NAhevbsSQtPT84uW4aJHoePihsWKg0xeBHRBsUFL5ow5LDSo6QkGo8ejQoIv3qVmjVr6s22MXPlyhX8WrSgiqsrv4eGYmUrzv0QqdiUFrzkRx/DSvInTxjj7U18dDRB//5b5qUdyhS8AHz00UesXr2a78aM4cthw15KbGnkHxb65elCW8+Lj4cHjQzYSyRSPggMDSUmIeGFPvvN6NF6GVYSBIE+X37J/vPn+eOPPxg9erRO7b1qzJ07l1mzZvHW2LF8vnKlXm2nJyezds4cUhML79ElImIYgo8ceeHncdyiRVofVvppwgT2LF/OnDlz8Pf3L/Pnyhy8pKen49WkCQ8fPODwokW8rsOFr6IePeKbdevYFhBAZpbmhYRERIwdZ3t7RnTvzsxhw6ikw6mJP2zdypSVK3mzd2/27ttX4YeLCqNUKmn92mtcDA5m5qZNvDF0qN5s3wkLY3yrVihekZlqIiIlUa1WLXqNGcPgL77AzOLls5JPbNvGN4MG0ax5cy6cP4+padk3XChz8AJw+vRpunXtCmo1BxYs0GkAA/BELmdHQADrDh3i5JUrQMFcg5LwHzmSSTpcDEukYjBywQIOnD9f5utNZTLebteOUT160K1FC50PsS7ZsYNPly2jlpsb586fr7Czi0rjxo0btG3XjuTkZL7atInOehxSlmdkoBAbYSJGwvRevbgRFFSmYSMAM0tLOg0cSPeRI/Hp1Elr+6Sd3L6db4cMoVKlSpw5fZpGjRo91+dLnYyWn3bt2rFv/37eevNNek+frvMAxsbSklE9ejCqRw+iHj1i/eHDrD18mLuxsaV+1trCAsfKRVYpERF5LsxLaAnkD6T9PD0Z3aMHgzt31ttmpvkDl5MBAWLgUgINGjTg+LFjdO7ShbnvvQegtwDG0traaBcFE6l4mJTUuyGRPAtqmnboQI9Ro+j4zjtazxXLH7gcP3bsuQMXeM7gBaBLly56DWDycHdxwX/UKGaNGMGp0FDWHjrE1pMnkRvZIjsiFYeq9vaM6t6dkd2706h2bb3aLhy41Naz/VcRb29vgwUwIiKvAk41a9Jj1Ci6jRiBqxZ3fM9P4cDlRfdee+7gBQwXwABIpVI6+vjQ0ceHXyZP5q+AANbmG1YSEdEmanXBPSDyhoVG9+xJVz8/vc68y0MMXF4cMYARqegosrMLDBnlDQv1GDUK744dtTYspAltBS7wgsELFAxgek2fzrwPPmDygAE6vfHC2FhaMrJHD0bmG1b6Yft20jM17zYqIvK85D3PPh4efNi7t16HhQrzRC7nixUrWLlvnxi4vASFA5g7YWGMmD1bL+tZiIgYmrznXJfDQoXJUSjYMHcum+bN00rgAs+ZsKuJgIAAhgwezKPYWDo0bcqaadOoU736S4l6GdRqNadCQ5FKpbQvZXlhEZHS+CsggAZubjR2dzeojoCQEEYvXEhUbCy+zZuz46+/xMDlJQkNDeWdgQO5GRmJu5cXX65fj4ePj6FliYjolKObNtGodWudDQsV5taVKywYOZLbV65Q18ODHdu346OFevbSwQvk7uI6efJkNm7ciLWFBYvGjWNcnz7ilE0RkZckMyuLL3/7jSV//YWJTMZsf3+mT5/+XFMKRYonMzOTmTNn8tOSJchkMobPmsV7M2aUnNQoIiJSKiqlks0LF7Lu669R5eTwySefMH/+fKy0tM+YVoKXPHbt2sXYjz4iITGRN5o357cvvjCafV9ERF41zoaHM2rBAm4+eEBTLy/WrV+vlRaLSFECAgIYNXo0d6OiqO/ry7Q1a6jj5WVoWSIiryRRV6+ycPRoIoKCqFW7NmvXrKGTlrfn0GrwApCQkMDHH3/Mjh07MJHJGNChA5P69aONke7CKyJiTOQolew5c4alu3YRcOUKMqmU6TNmMHv2bMzMNG5tK6Ilnjx5wtSpU1mxYgVIJLTq2ZN+EyfSont3vebyiYi8iqjVaoKPHmXX0qWcP3AABIGxY8eyaNEibHWQU6P14CWPnTt3snDBAv4NCgLAp25dJvbrx5AuXbDSwsp8IiLlifjkZFbv38+KvXt5kJiIBHirTx9mzZqFn5+foeVVKE6cOMHc777j+LFjALh6ePD2hAn0GDUKGzs7A6sTETEunqSmcnjdOnYvW0ZMZCQAnV5/na9mzqRLly46s6uz4CWPf//9l6VLl7J1yxYUOTk42NoyumdPujRvjp+nJ1VFZyCiYxQ5OZgZWQ6DIAjci4sjOCKCPadPs+3kSRRKJfZ2dnzw4YeMHz8edwMnCVd0rl27xrJly1i7bh2ZGRlYWFvTddgwWvbsiaefH1VdXQ0tUUTEICQ+fEhEcDD/HjrEkfXrycrIwNLKipEjRjBx4kQaN26scw06D17yiI+PZ/Xq1axYvpwHDx8+O16rWjX8PD1p4emJn6cnzevXx87GRutDTGfCwmjVqJFB1uXII/DKFTp4exvMfh6nQkNp26SJQbvC9VUWSamprNy7l5nDh+vcVnGoVCrikpMJjogg6MYNgiMiCI6MJDE19dk1Pt7eTPrkEwYPHqy1hDYR7ZCamsq6dev4ZelSbt28+ey4g4sLnn5+NGjRAk8/P+r7+lK5ShW91KsrgYF4d+igczvF8fDOHUxMTXEykt3Lk+PjSUtKolbDhoaWYvDfJvHhQ7IyMqhRr95Lf5darSYtKYnIixe5ERRERHAwEcHBJOV7h9f18GDSxImMHDkSOz12RugteMlDqVQSEBBAUFAQQUFBBAcFEX3/fpHrzE1NsTQ3x8zERCuBTHJ6OlYWFiUu965LVGo1j9PTqVKpksFzfx6np2NjYWGw3giVSkXykyc46qEsMrKykGdn68VWftRqNdk5Ocizs8lRqQqck5C7XH2Lli3x8/OjTZs2NG/e3ODPhUjJqNVqzp07x4ULF3L9V3Awt2/dKnKdiZkZ5paWmJqb6+Q3VSmVZKSmUsnRUevfXVYy09ORSqVYGMm2B/KMDBAELG1sDKpDpVTyJCWFSo6OBqvP8idPAF64LARBICc7m2y5HKVCUeR8nbp1admiBX5+frRq1Yo2bdoYpCH8wovUvbBBExO6dOlSYCwsLi6OixcvEhwcTGhoKE+ePEEulyOXy1FoKLznJTs7m7jkZKxNTXF2c3vp73sRHj58iFqtxtbRERsDVrCsrCzikpORmJnhbKBW04MHD1Cp1VSqUgVrHTo/QRAIDQ0FoHLVqnrv0bCwsMDS0hJLS0vs7e1p3rw5LVq0oFmzZjpJYBPRLVKplLZt29K2bdtnx5KTk5/5rpCQEFJTU5/5rmwdbV0SHR2NSqnEyc4OCwPkD6rVasLi4rCwsMDNCGaTCoJAeHg4MpmMmtWqGbQREBMTg1qlomrlygbpQRUEgbD4eExNTV/qtzE3N3/muypVqoSPjw8tWrSgefPmODg4aFHxSyBUAKZMmSKQu4eeoFAo9G5foVA8s//hhx/q3X5+Jk2a9ExLTk6O3u1nZWU9sz9p0iSd2jp8+PAzW9OmTdOpLRERfZCWlvbsmfb39zeIhg0bNjzTcOfOHYNoyM++ffue6bl8+bLBdMjl8mc6Pv/8c4No2Llz5zMN4eHhBtGgL8r9/L+srCx+//33Z/8/9nQGgT7Zu3fvs3/v2bMHVaFhBH2RkZHB2rVrn/0/MDBQ7xp27txZ4N+F9w7SJsuXL3/27y1btiDod4RURETrbNq06dm/t23bZhAN+evV9u3bDaIhP/n1bN261WA68pfFX3/9ZRB/k78sDPV86A1DR0+6Zv369c8iUUAYNWqU3jV06dKlgIYTJ07oXYMgCMJvv/1WQMdHH32kdw3t27cvoOH06dM6sRMdHS1IJJICti5cuKATWyIi+kCtVgteXl4FnumwsDC9arh8+XIB+82aNdOr/cLcuXPnmRaJRCLUrl1bUKvVBtHy2muvFSib8+fP69V+REREgbKoX7++wcpCH5T7npf8kSjkRsS6GovWRERERJHeHkO0DgRBYNmyZQWObd++nZycHL1pCA8P59SpUwWO6ap1sGrVqiItn3LfEhEp15w7d46wsLACx/T9TK9YsaLA/y9fvswtDUnL+uLXX3999m9BELh79y4XL17Uu46QkBDOnTtX4Ji+f5uVK1c++7cgCERGRj7L+SuPlOvg5fLly5w/f77AsfT0dI4cOaI3DfkfqDy2b9+OUqnUmwaAoKAgLl++XOBYcnIyx48f15uGwo5PIpGwbds2rQ+jKRQKVq1aVSBxTyKRsHXrVp0OU4mI6JLCDTGJRKLX4dDU1FQ2bNhQ5Lihhmqys7NZvXp1kQRdQ+jR5Nv06W8yMzP5448/jKIs9EW5Dl4KP1B56OsHzXugCpOUlMSJEyf0oiEPQ5dFeno669atK3BMEARiY2M5ffq0Vm3t3r2b+Pj4Ak5dEARiYmKKBLMiIq8CCQkJRVrygiBw8+ZNrly5ohcNGzZsQC6XFzm+ZcsWvdgvzI4dO3j8+HGBep4XNOgroAPNQZ0gCDx48KBIb4yu2Lp1K6mpqUXKojzn+pXb4CU1NZWNGzdqPLd7926NlVDbbNmyhbS0NI3n9Nml+PjxY/7880+N5/766y+tTEcvjU2bNpGRkaHxnLYDqOICNV3YEhHRB3/88UexQ7z6eKYFQSjS85NHeHg4169f17mGwmjSIwgC9+/f12sjpbigDvTnb4ori6ioKC5duqQXDXpH71k2euLnn38ukDxV+G/nzp061+Dr61usfTs7O71N2/7hhx9KLIv9+/fr1L6mRMP8f46Ojlqbtn3t2rVi7UgkEsHZ2VlQqVRasSUiog+USqVQu3btIgnoec+0PpJUT548WaIPmTNnjk7tFyYkJKREPZMnT9aLDrVaLTRs2LBYHU5OToJSqdSphqCgoBLL4osvvtCpfUNRLntehBJaCXnoOiIOCgoqMXEsJSWFf/75R6caIHdBqeXLl5e4cJOuy+Ls2bNFEg3zk5SUxMmTJ7Viq6ReF0FHw1QiIrrk8OHD3L17V2P3v/A0STU4OFinGkqqV4YYnihJD6C3fJPAwMASe53i4+OLTFLQNqX9NvoeRtMX5TJ4CQgI4MaNGyVes3fv3mKHMbRBaZUL9NOleOzYMW7fvl3iw7tz506ysrJ0pqEsZaGNYbSMjAzWrFlT6nXi0JHIq4S+6k9xxMbGsmPHjmLPC4LAjRs3CA8P15mG/KSlpbF+/foSr4mNjeXMmTM612Lo3yY5OZnNmzcXe14QBKKjo7lw4YLONBiKchm8lOWBksvlHDhwQCf2S3ug8ti5c6fOp22XpSwyMjI4dOiQTuxrSjTUhDambW/evJknT/f1KIlt27bpfbaXiMiLcPfuXfbv31/iNbpuXf/+++9lmhGor0bBxo0by5SzqGs9sbGx/PXXX6Vep0t/s27dujI1PMtjg63cBS+PHj0q0wMFuouI165dW6agRNfTtmNiYti9e3eZrtVVWZSUaJiflJSUl1r9WBAEFi9eXKZrExMTCQgIeGFbIiL6YtWqVaVeI+gwSVWlUrFy5cpS9wvS1/CEoGG9quLQxTIM+fn999/LFJRoc1g8P2VJj4D/lqQod8tEGCDPRqd8++23JSYvFf5LS0vTqn2VSiW4ubmV2f6QIUO0aj8/s2fPfq6yyMjI0Kp9pVIpVKtWrcz2R4wY8cK2zp8//1z3aojVhUVEnoesrCzB3Ny8zM+0LpJU9+zZ81z16tKlS1rXkJ/AwMDn0nPs2DGd6FAqlYKjo2OZdYwZM0brGv7555/nKotTp05pXYMhKVc9L0qlssCKi2Vh3759WtVw/PhxoqOjy3z93r17dTJtOycnh9WrVz/XZ/7++2+tajh8+DBxcXFlvn737t0vPIwWHR3NiBEjeOedd3jrrbfo2rUrLVq0AMDe3h4PDw9cXV2xt7cHcstdn6sLi4g8L887rLx9+3att67L0rLPj66HJ4xFz4EDB0hKSirz9bt27dK6vzGWsjAUEkEoP2nIgiCQmZlJVlZWgb/Zs2ezc+dO1q9fj729PXK5/Nm5evXq0alTJ61pUCqVRTTI5XJatWpF/fr1WbRo0bNjeef79u2Li4uL1jSA5rKQy+XMnDmTvXv3snnzZmxsbAqc9/T0pEOHDlrTUFxZ+Pr60rRpU+bPn1+gHLKysujXrx/VqlXTiv3r16/TqFEjPv30U41DSoIglNodLiJiKHJycpDL5QXqSHJyMq+99hrt2rVj5syZRerWkCFDsLOz05qGPNv5NWzYsIEFCxbw9ddf4+vrW8C+vb09AwYM0Jr94vTk/9u9ezdffvklX3zxBZ06dSpwjaWlJUOHDtW6jrzfJv+9y+VymjVrhp+fH3Pnzi2idcCAAVStWlVrGgp/v1wuZ8eOHfj7+/Pll1/Spk2bAuetra0ZPHiw1uwbGhNDC9AmEokEa2trrK2tCxyvVKkSAF27dsXZ2VmnGkxMTKhUqdIzm5D7klQoFDg7O9O9e3ed2s+juLKwsbEBoFu3bjg6OupUg6ayUCqVqFQqqlevrvOyyOvRsrCw0HheDFxEjBlTU1NMTU0L1J/Hjx8D4ObmRo8ePXSuwdLSEktLy2c9lgBOTk4AtG7dmm7duulcgyY9+cmbSePr60uvXr30okPTb5PXS+bq6qoXP6+pLPLeb35+fvTu3VvnGgxJuRo2Ko68bOziXmK6JicnB0EQDGY/P4Yui7wKrg/7hr5XERFtYwzPtDFoyI+x6DEGHcagQV9UiOCltBa4rjGmBypPi7m5uUHs6/O3yLvXwq0TEZFXFUP7MmPRkB9j0WMMOoxBg76oEMGLoV/Yxha8mJiYYGJimBFDfZaFMZW7iIg2MIZn2hg05MdY9BiDDmPQoC8qTPBibm5usBwHY4qG5XJ5halcFakii1QMjOGZNgYN+TEWPcagwxg06IsKE7wYwwNlDMMXeRn4hrQP+imLilSRRSoGxuBLjK1eGUOZGIsOY/ttdIkYvOjJPhjHA1WRysKYyl1ERBsYwzNtDBryYyx6jEGHMWjQFxUieKlIQyWlYejgxRAJu8ZQ7iIi2sAYhqCNQUN+jEWPMegwBg36okIEL4Z+YRvTS7QilUVeRTZ0d7KIiLYwBl9iDBryYyx6jEGHMWjQFxUmeBHHIXOpSMGLMZW7iIg2MIZnOisrC6lUiqmpqcE05McYysRYdBhD3o2+qDDBizE8UIauXFCxysKYyl1ERBsYwzOd50OMZYVqYygTY9Fh6GVB9IkYvOjJPhg+GhYEwWh6ocTZRiIiz48x+BJD+9PCGEtPkLH8NoZcFkSflPvgRaVSoVAoxCQqQKFQGHybAn2WRd6eo3n7OYmIvOoYgy8x9ASIwuTpMfQLW/xt9Eu52phRE1KplNdff12rO0c/L82aNaNGjRo0b97cYBogdzOx9u3b07FjR4NpaN68OTVr1qRZs2Y6tzVhwgQ8PT1xd3fXuS0REX3g5+eHu7s7jRs3NpiGDh06kJGRYTD7hWnXrh1VqlQxtAx8fX1xc3PD29vbYBrat29PrVq1DGZfn0iEvOapiIiIiIiIiMgrQLkfNhIREREREREpX5T7YaM8Uv6ezrvzT5MpgKz2e6xYO55G5ezulaG/MHzSVu6rNJyUSJBKZJiYWWJT2QGnmh40bdeHwW/74lQOyqHEey8WM9pM38v3b4o5MSIiIiKvEuXgtVUG1LHsXLmSf06nIgBceMy6iWNY2NrM0Mq0ijotiktnzxCpLOMHfp7P9138+XPrDNo7vNqdcM997wCYYxf/XB8QERER0YwynUf37pOYKWBZqSrONZywkRlaVPmlQgQvqntb2HgsDUFaGTvbdFJTI9m6NgD/1l2xMrQ4nWBCvf4zGd/ejgL594KanKx0EqPDCNh3gH8fZPHgmD+DP6zB2W0jqVUuKlox917Mte6tyv9iTiIi2ieFv6e/y/zTmQjIqP3eCtaOb6S7F4oylF+GT2Kr5m5lJFIJMhMzLG0q4+BUE4+m7egz+G18dd2trHzE2fW/sGz9Lo5eiCQxS53bQEaCaSVXGrZ6g37DxjF+aCuqaV2KktBfhjNp632KlooEqYkpFjb2VKvhQWO/dnTv3Y1mLuVo/Reh3JMjhH3jJ5hJEEzqTRRWz/YTTCUI0mrvCTuSDa1Nu2Sf+kyob4IApkL7H6IEVQnXqpJOClN9rQUJCJg0FKaez1uZZq8AABH+SURBVNabTl3wPPcuIiLycqge/S68VVkiAAIgmDScKpzTpQvJPiV8Vt/kmb3S/ySCqesbwtzAJJ35gvQrfwhjmtkLMkk+uxKpYGIiEyQFjpkIVVqMFzbfkGtZQbZw6rP6gkkZy0Ri7iK0HPGDcOJBjpZ1GIby3/OiCGbDnyEoBBMa9R/GsCGu/LHwIucSDrB+Vyz9RjtXyKxlqUNHpk7swsr395KmvM3Fi49Rt6qYZSEiIvI8qLi3ZSPH0gSkle2wTU8lNXIrawP8ad1V933ZJvX6M3N8e+wKdiujzskiPTGasIB9HPj3AVkPjuE/+ENqnN3GSC13Kz/5dyF93pzJyQQVmDjg885EJn/wDt1aNaK6jYSshDtcCtjDhuVLWHvyPolBKxnZIxUC1jPETQdd3Cb16D9zPO3zF4qgJCstiZiblzj1TwBhcY/4d/0Uuh37hwU7t/J5S1vt69Anho6edE3G0fFCbRmCxNRHmH05RxCUt4QfOlgIEiSC1es/CXeUhlaoPZ639yHr+ATBXYYAZkLHxfde6d4KsedFRERP5IQJ3/iZCRJMhHoTVwuz/UwFCVKh2ns7BJ11ZufreTFt/4MQVXK3snByqq9gLUEAE6Hh1POCNjuFVIn7hY/qmQoSEKS2PsLHf0UV//2qRCHAv4PgIEUAqeA0YL3wQGvOKV/Pi2l74YeSCiXjjrDfv7tQw1QigEQwqTlE+DPm1faS5byhncKhdbuIVkkwbfYOg7xMQObOgHfaYCkRkJ/ZxKYbFTdhUxGfQIoASKvgUd9J7HUREREpFUXwBv4MUSCY1Kf/sGEMGeCHmURNwoH17IpVG1oeSB3oOHUiXWwlgJLbFy/yWGuysji3cCprbuUgyJzps2QnP/evTbFTP6SOdJi9ngU97ZGiJmHvEn67aoB3jpU7vefs5u/5nbCXCijvb2PGN0dI178SrVGu31fquD1s2B+PWmJOy4GD8JQBSKnZ/13aW0sQFJfZvD4YhaGFGgLFdf747QipagmmHgMZ3qliLCktImJMqDMzix5LvcXJLcv53n8qE8eO5ePJ0/jmp3UcDI3X4KtUZGZk60PqUzIJXL+NSKUE0ybvMNjXgnoD36GVuQR16j9s2HpPQ/KoAbCpRU3Hp683pUJ7Pj55D7+suUGOIMG63RcsHOFOqYNA0lq8N74/LjIQlGEcPRxtoDKywGvyYj5pZoYEFdHbVrErwQiCzRekHOe8qLm/fQNHU9VILNvw7sA6zx4yqUtf3n19Gkf2pRK5dR0B/q3Rw1CtXsmMv0lYaFqhGTdqstMTiL56lv1rf2XT+VRweI0Zq+fQsRzdv+Z7L4wEmZ0bDd0ql+8IXsQoeXLrEH8sWcLKU/W4FvLz06MZhK/9lFFfrONSYg6Flz6XSG2p1+9r1q2eTGv7p0+t+iG/vdOBPx1H8cmn4xno56Rbp55yiHW7olFJTPF9ZxC5ndkDeKfNLE4dl3Nm0yZuTPiKxoZ+syjiScjtVqaKR32ctFTJU4/s5MhjNUgq03X0cDzKmL5i1f17zoR9ToYgwdzRufSAR1eYNGH44JbMv3QaRVoghwPljBhgbSg1L4ehx610hvKq8F0rc0GCRLDt+WuRccb49f0EOykC0mrCsL/Kx7Sj//I+ypiNX7OnsOhciqFla4Xnu/fc8Wf7oX8J2s7/FxEpHrkQHfibMK2/j1DFVCIgkQqVW3/79JxKiN8zRqjzNCdBZusmtOg5WBj94YfCqEG9hJZuNoJUgvD/7Z15WFTn2cbv95wZQFktVxBB0khValRUFuOSmIAo2ayaKCqmLvn8rCa0Ro1NsTGbWxOjscYKwTRGVAQlUatJ/D6iIkaraFWQxYILILggKqgYlZm5+8egRVCcgRk23991vf8wzPCcw5zzPud+n/t5IVS2H7uB5+7cz/QXGDfGg1oBCsWB3sGTuWhLJq9YpZxBz/NfD6OLAgq7p7koV3f354XRoXQQlc5Fa9iOzKl54S1mLQ0xxqntzGnJ5RYK4iZ3vtmBKkBhE8S/FjR2zYgZNS9V3/XTjLv1gT3fO2rlGK1Hi33o1B1ei/WHb4GKMwaOGgb3akf62MthGNxGAQwXsS12My40X/XsPggoqgYaTc2hKqJSkSAqzmzHOyH++M38ZBS3mON/8LHfO1Ro1Ja/bbykCaC7iCMJczG+f0f4PDsJH286DtuAsfgwLhW5e941/o7hPDYuj8PpCkJ9YizWHTuJ1O/X46uYGKyK/w4Hco8hfkJnaKFH0TcrEF9QecEqbhgTl4PsH5YhItQTl3evxKxhPeDtOxQzo3chr+aqVN0xnMHGNUkoMwi06heGkd53tWy0GxqGICcB6HKQsHo3LPlna3CjGLnH0pGefu84enAvkr6JwYcTn8PAWTtQhl+gb+RKfGAxWbkMOblnYQCguPvgSUvJOQ2MxtsbXgoAGFBcVNTY4dSdxs6erMPP3BnhbcyQHYO5YE8a09Kqj71cFOpMAVDYB/Gvp5u/7cgkx42unCUFmUyJX8hxvdoYn+aUNhy4NIvN2f0v3UaSpoa+NJtbF09hSEdHKgIUWlf6Dp/FmN35NRW/ilRGdtMSEGw9LJZX7/N5urx1jHhxMAc/H87PDt5P3dDxUloi5098hl6tjQqOjXsAR8+J5f5z9VdDdJnz+ZStIIQjX/iiqNo1VszY4S5UACptX6PFxWwz+7wIrRdfWPRPWlRX1mVyboDWqP70mMMjjX7DrJvywvI1HN5KVKrPidYN0Yq0zOTl6maO91BNX0IQNgycm8Hmnr6YPYFf2clpXYyWP9VzEr+73hBRWgeZvEiaCuV5yfzi7WHs7qqlgKDi2JEhU5Zw2/GrD/5e6s8yKrS18WHK0Y9vJBxnfS7HW0X7uGr2SPq52RhjsH+Cz/3PX/jtsct1vDYqmBrZjVqAisswfn2h5qdcXh9GVwWE4sKhq85b9hqskrwIRaVGo6k5VOWe5nBCseevhszjrvvEWicq0vm+X2Xy0vO9Zpy8rL2bvDw2brN1Q7QizVP3qhUDLm6JxT/O6wGhQH3I8oGqCIC3cWT9Ghx61GxHLgMweWxPaADoi/fjp6xH1zYukdQPHS4cXIf3xz6FTj5B+N2nW5BrF4DXPlyPQyezkRQ1HS/5OD64OFxpi7BpE+FjJ8Brh7FitC86dBuE196ah+jEZGQWm+cosvHoiwnzN+Bfp7Lwf59HILR9KfZ89Se82ssbXV+ahuVJJ1Fuzgfe3IPYhGxUQMDerzd+dT6jxrLNmccDEeAoAEMZfoxNQIGVLDWa/p8g91YFKiqqDd1tXL9YgMyUeCwc1wsuuIGTW9/DK+GfI9sStzbFEU6Vta2G0ku40iRsVeZjKCvFVb2xmNnJpU1jh1N3Gjt7sjj6fK4Y7EABUPPrt7mvVrW0goff9aUWINQnODXJUoVdjYP56oOeZ5cPpA1AqF6cknSzAaK0DlJ5kTQm+sJlDLIVhFDZpttwzlq5mwVmV4PrWLTjY4b7t6WtqLYMonGkl/+LnLxwE7Ou1SFA3SWmJy7gxKfb006AUDswYpfp1/vVzePpoZpeEC9sAjk3w4JatlkFuyR5hTundaFWgFA9OckisvJ1bhjtYlTHWj3PmAtmvFVXyJQ10YyKimLMtkwLGQXqWLC7exo7aozNSQcsOW2RSBqDFqe86HPjsTalHBRadB0RjsBaN47WoPuoV+GrFYC+AJtWb0dpQwXaJKhATk4eDACgtIWnR2P7GyWSZopqDwc7AUEDykvOoKAgH2dLzZVyVXgE/xHrDhWgIG07Yhf/GVPCQtDLywmq/hrO/Ot7xES+gsC+U7CpyLwKe8P1YuTnF+DM+TLcBiA0reFga2LBuuEitsT+A0YxW31oIbxRzD6C9Wsas4eWCwZMHoueRlkZ+3/KQv3FFzv06NkFGgHw1lHs3W+GdnU9GZ+9MRVTp76J2Rty6x1J3dEhe0cK8nUAVA9079muEWOpHy0sedHh6Np1OHiLENpeGDnG96E9DzRdwvCqvxYCBhRvi8XmlmU7qhXdyVgsjj8NHQS0PoMQ2rlFbCstkTQ4ivvrSDy+D6vnjEIPcQwb5o5Hv46d8dykv+DbY1dg3l3FBm7dQ/HbGfMQlZCEwwXFKDgQjw9GdIGjQpRnfIk3I7eY9KB1Iz8ZMW8PQw9vX/xm5hfYdbEdBr+xFN+l78fCvrU+2d3FUJiINf9fCgM08JmxB+XVl2uqjp8PYnZ3LQAd/p2wGilWtR3VjmjjAicBAAaUXSmzQGM4Fd6DB6KLBoChGD+s/w6XTHznjX27cfAGAWEL30C/B3fktTY3/onVCcdQAUB57FkMCmy+u0y3rOTl1l6sic9CBQVs+4RhtI8Jk7HaCWEjnoKtgLFD5IYCM280TZOfS04hOysLWTVGJtIP7sLGpb/H4OcisK3YAKG2w/DICPi3EOHlwcdefWQj7/KjVugksRY27k/htx+tR+qJ49gRNR1DOlzDvq8iMcLPhDqTsmzs/DYRid/8gLQaXU9t0S5wFN5P2I6FwfYQ0OPivmSkP/CrW7X+Jhi/W7IVpx37YeKCjTh8Kgs/LJ+GFzo7mHhUeuTGr0VKOSG0XTEiPLD2iVfTHaNe9YVRzN6E1dsbT8uuyMlBnlFWRltPD4s079P4hiM8sBUEDLi4aQE+3WeC+mI4g7gViTirB0SrPhjykkcjTbw3cGjJn/Bljg4QGnQcNRGDTP0aNEUae93Kklzb+jo9VRDCniHLTd9oUJ+3jMF3rIW95zGzmdqOzG/UBgqtO4M+SuGlZl4kUpdjB7Ts93FuY4cuaanoS5m9dTGnDOpIJ1UQQks3vxGcvWovi6qVm+jPLudAW0EIB4ZGFz7g3nWdieGuVABqOr3FlOr1fPorzNz8Cf83qAMdFEEIW7YLHM05sftZZ6d0xSG+62t0TZl6b9RlL2AfG6ObxWXoKp63xL3F3JqXihOMGeJGBaDQdmNkquWsQVe+n0xvTeV80fE1rj1R28n9mRmfv8i2Cgio9Bz3LS9ZLBIzal4qznH3J0P4+J0miJ6jGGe5HSIbhRaUvJQwbqTxwhbOQ/j3c2b8Y/SFjAo1FvlC8yTfOWCFDpENgGkTuKBQbejk3pn9XpnB6D1nm3V/lzvI5EXSdNGx5EgC545/ml6tjJNHa69nOHH+RqZdqswGdJlc0Me4273aLoQffH+a99oHynlyywz2dlYIKHQdGfffSbD8FHesmM4hT7ahprKfTPdhMxm9K4/1tSDcTK4s7hR2HPDpCdPaSehO8NNn7Cp7aAVzmakW3tqomrwERHJHRiYzM2uOjLRU7tzwGSOC2tOmsiOxR9g6C+7kTFJ/iUnTfdlaVHYqd3+aETEpNQq0bxb9xJVv9qNbZaKj/WU44y26k3PV5CWAkTsy7j0fGWk8mLyJKxdE8OUuzlQri8AVJ3/OSipu9qaGFpS8SCQSSdPmZtFerpo9kv5tjf1XtJ1n3n2tNPmP7GkvKntPaenk6cNefZ7hgP4B7OrlbHTOAFRcg7kkvfIBS3+W0c/bG5Mep04cNPUh/WTM4hq3vu5pbPZpH8Ll+SZr2cxbFmyc3IUNe8/LrH8PLTOb1N05h+5BHzHFGrKyLp9bpvehqyruPhRqHNrRx78/n322PwO6tqeT5r+v2XYYzr8dsXQjrSrJi0nnQ0NXvwlckVrXXj9NC5m8SCQSSUNz/RR//NtbHPrinCo/1PP8rkUc4+9mVA2qL/EqDvQe+Ad+fbRK/119IVeOC+L4uQk8UmLh9e6SOI50VQgIOg/5O80Ts6MY6mCcvDVPvsN6i9kmJi9CqLRxcmfnfq9wRvQenrWqrHyLeUmLOSnI27gseB+VW+valS+99SUPlFgjXagteREUqpatnNvyiW79+PKEd7hsSwYvt4SspRJBkqZXyEgexs1Nk9Fz5o9mWgS16PNeMuImNF/bGvBoH7tEYjlu42LWfuw7koPCknLA/hdwc2+PTj16w9fLvoW5LFoGN84dQ+qBNOQWluDabQE7Zzc8/ms/9A30gWujWYtaNjJ5sTC6zG+wdGuumT0FVPwyZArGBDhaKaqG4VE+dolEIpE0HDJ5kUgkEolE0qyQCqREIpFIJJJmhUxeJBKJRCKRNCtk8iKRSCQSiaRZIZMXiUQikUgkzYr/ADUuH8vKdTAqAAAAAElFTkSuQmCC;" vertex="1" parent="1">
          <mxGeometry x="146" width="489.45" height="190" as="geometry" />
        </mxCell>
      </root>
    </mxGraphModel>
  </diagram>
</mxfile>
